<svg width="430" height="462" viewBox="0 0 430 462" fill="none" xmlns="http://www.w3.org/2000/svg">
<ellipse cx="370.178" cy="121.109" rx="131.294" ry="217.159" transform="rotate(101.502 370.178 121.109)" fill="url(#paint0_linear_301_3)"/>
<ellipse cx="321.59" cy="87.6217" rx="131.294" ry="217.159" transform="rotate(101.502 321.59 87.6217)" fill="url(#paint1_linear_301_3)"/>
<ellipse cx="360.056" cy="71.8497" rx="131.294" ry="217.159" transform="rotate(101.502 360.056 71.8497)" fill="url(#paint2_linear_301_3)"/>
<ellipse cx="164.392" cy="41.4783" rx="148.83" ry="331.141" transform="rotate(37.1515 164.392 41.4783)" fill="url(#paint3_linear_301_3)"/>
<ellipse cx="93.5019" cy="91.6302" rx="148.83" ry="331.141" transform="rotate(37.1515 93.5019 91.6302)" fill="url(#paint4_linear_301_3)"/>
<ellipse cx="104.424" cy="33.8093" rx="148.83" ry="331.141" transform="rotate(37.1515 104.424 33.8093)" fill="url(#paint5_linear_301_3)"/>
<defs>
<linearGradient id="paint0_linear_301_3" x1="238.885" y1="-96.0504" x2="588.359" y2="325.16" gradientUnits="userSpaceOnUse">
<stop stop-color="#FF3104"/>
<stop offset="0.572917" stop-color="#787344" stop-opacity="0.49"/>
<stop offset="1" stop-color="#8E8C77" stop-opacity="0.49"/>
</linearGradient>
<linearGradient id="paint1_linear_301_3" x1="190.297" y1="-129.537" x2="456.055" y2="64.7946" gradientUnits="userSpaceOnUse">
<stop stop-color="#848277"/>
<stop offset="1" stop-color="#816E40" stop-opacity="0.5"/>
</linearGradient>
<linearGradient id="paint2_linear_301_3" x1="228.762" y1="-145.309" x2="494.521" y2="49.0227" gradientUnits="userSpaceOnUse">
<stop stop-color="#DC04FF"/>
<stop offset="1" stop-color="#555111"/>
</linearGradient>
<linearGradient id="paint3_linear_301_3" x1="15.5617" y1="-289.663" x2="554.528" y2="193.238" gradientUnits="userSpaceOnUse">
<stop stop-color="#FF3104"/>
<stop offset="0.572917" stop-color="#787344" stop-opacity="0.49"/>
<stop offset="1" stop-color="#8E8C77" stop-opacity="0.49"/>
</linearGradient>
<linearGradient id="paint4_linear_301_3" x1="-55.3284" y1="-239.511" x2="301.555" y2="-45.5133" gradientUnits="userSpaceOnUse">
<stop stop-color="#848277"/>
<stop offset="1" stop-color="#816E40" stop-opacity="0.5"/>
</linearGradient>
<linearGradient id="paint5_linear_301_3" x1="-44.4068" y1="-297.332" x2="312.476" y2="-103.334" gradientUnits="userSpaceOnUse">
<stop stop-color="#E100E6"/>
<stop offset="1" stop-color="#555111"/>
</linearGradient>
</defs>
</svg>
