<svg width="151" height="81" viewBox="0 0 151 81" fill="none" xmlns="http://www.w3.org/2000/svg">
<path d="M13.77 13.275C18.39 13.275 21.69 14.115 23.67 15.795C25.65 17.475 26.64 20.025 26.64 23.445C26.64 25.455 26.145 27.255 25.155 28.845C24.165 30.405 22.665 31.635 20.655 32.535C18.645 33.435 16.185 33.885 13.275 33.885H11.385V37.845C11.385 39.045 11.52 39.945 11.79 40.545C12.06 41.145 12.525 41.565 13.185 41.805C13.875 42.015 14.91 42.12 16.29 42.12C16.29 42.66 16.2 43.185 16.02 43.695C15.84 44.205 15.6 44.64 15.3 45H2.205C1.875 44.64 1.62 44.205 1.44 43.695C1.26 43.185 1.17 42.66 1.17 42.12C2.19 42.12 2.91 41.955 3.33 41.625C3.78 41.265 4.005 40.68 4.005 39.87V18.72C4.005 17.88 3.78 17.295 3.33 16.965C2.91 16.605 2.19 16.425 1.17 16.425C1.17 15.405 1.5 14.46 2.16 13.59C4.17 13.59 6.9 13.515 10.35 13.365C12.09 13.305 13.23 13.275 13.77 13.275ZM18.81 23.31C18.81 21.39 18.36 19.83 17.46 18.63C16.59 17.43 15.12 16.83 13.05 16.83C12.39 16.83 11.835 16.89 11.385 17.01V30.195C11.655 30.255 12.045 30.285 12.555 30.285C15.045 30.285 16.71 29.625 17.55 28.305C18.39 26.985 18.81 25.32 18.81 23.31ZM43.6303 20.565C44.9803 20.565 45.9703 20.91 46.6003 21.6C47.2303 22.29 47.5453 23.235 47.5453 24.435C47.5453 25.725 47.2003 26.775 46.5103 27.585C45.8503 28.395 44.9503 28.8 43.8103 28.8C42.8203 28.8 42.0103 28.515 41.3803 27.945C40.7803 27.375 40.4803 26.7 40.4803 25.92C40.4803 25.44 40.5253 25.065 40.6153 24.795C39.5353 25.065 38.6203 25.53 37.8703 26.19V39.69C37.8703 40.44 37.9753 41.01 38.1853 41.4C38.3953 41.79 38.8003 42.09 39.4003 42.3C40.0303 42.48 40.9603 42.57 42.1903 42.57C42.1903 43.11 42.1303 43.575 42.0103 43.965C41.8903 44.325 41.6653 44.67 41.3353 45H29.3203C28.6303 44.31 28.2853 43.5 28.2853 42.57C29.1553 42.57 29.7703 42.39 30.1303 42.03C30.5203 41.64 30.7153 40.995 30.7153 40.095V27.09C30.7153 26.28 30.4903 25.71 30.0403 25.38C29.6203 25.05 28.8553 24.885 27.7453 24.885V22.86C28.7353 22.29 30.0403 21.795 31.6603 21.375C33.3103 20.925 34.5853 20.7 35.4853 20.7C36.2053 20.7 36.7153 20.955 37.0153 21.465C37.3153 21.975 37.4653 22.995 37.4653 24.525C38.0053 23.505 38.8603 22.59 40.0303 21.78C41.2003 20.97 42.4003 20.565 43.6303 20.565ZM59.3891 45.585C56.0891 45.585 53.4491 44.55 51.4691 42.48C49.4891 40.38 48.4991 37.395 48.4991 33.525C48.4991 30.765 48.9641 28.41 49.8941 26.46C50.8541 24.51 52.1891 23.04 53.8991 22.05C55.6091 21.06 57.5891 20.565 59.8391 20.565C61.9991 20.565 63.8891 21.045 65.5091 22.005C67.1591 22.935 68.4341 24.315 69.3341 26.145C70.2641 27.975 70.7291 30.195 70.7291 32.805C70.7291 35.535 70.2491 37.86 69.2891 39.78C68.3591 41.7 67.0391 43.155 65.3291 44.145C63.6191 45.105 61.6391 45.585 59.3891 45.585ZM59.7491 42.345C60.7991 42.345 61.5791 41.745 62.0891 40.545C62.5991 39.345 62.8541 37.125 62.8541 33.885C62.8541 31.155 62.7191 29.055 62.4491 27.585C62.1791 26.115 61.8041 25.11 61.3241 24.57C60.8441 24.03 60.2291 23.76 59.4791 23.76C58.4291 23.76 57.6341 24.36 57.0941 25.56C56.5841 26.76 56.3291 29.01 56.3291 32.31C56.3291 35.01 56.4641 37.095 56.7341 38.565C57.0041 40.005 57.3791 40.995 57.8591 41.535C58.3691 42.075 58.9991 42.345 59.7491 42.345ZM75.6745 16.2C75.6745 15.45 75.4495 14.895 74.9995 14.535C74.5795 14.145 73.7845 13.95 72.6145 13.95V12.15C73.6945 11.55 75.0595 11.04 76.7095 10.62C78.3595 10.2 79.6945 9.99 80.7145 9.99C81.4345 9.99 81.9445 10.14 82.2445 10.44C82.5445 10.74 82.6945 11.265 82.6945 12.015V40.095C82.6945 41.025 82.8745 41.67 83.2345 42.03C83.6245 42.39 84.2695 42.57 85.1695 42.57C85.1695 43.41 84.8095 44.22 84.0895 45H74.2345C73.5445 44.25 73.1995 43.44 73.1995 42.57C74.0695 42.57 74.6995 42.39 75.0895 42.03C75.4795 41.64 75.6745 40.995 75.6745 40.095V16.2ZM97.7846 13.185C97.7846 14.475 97.3796 15.51 96.5696 16.29C95.7896 17.04 94.7396 17.415 93.4196 17.415C92.1296 17.415 91.0946 17.04 90.3146 16.29C89.5646 15.51 89.1896 14.475 89.1896 13.185C89.1896 11.925 89.5796 10.905 90.3596 10.125C91.1696 9.345 92.2196 8.955 93.5096 8.955C94.7996 8.955 95.8346 9.345 96.6146 10.125C97.3946 10.905 97.7846 11.925 97.7846 13.185ZM96.9296 40.14C96.9296 41.01 97.1396 41.64 97.5596 42.03C98.0096 42.39 98.6846 42.57 99.5846 42.57C99.5846 43.5 99.2396 44.31 98.5496 45H88.3796C87.6896 44.31 87.3446 43.5 87.3446 42.57C88.2446 42.57 88.8896 42.39 89.2796 42.03C89.6996 41.64 89.9096 40.995 89.9096 40.095V27.045C89.9096 26.205 89.6996 25.605 89.2796 25.245C88.8896 24.885 88.1096 24.705 86.9396 24.705V22.725C87.6596 22.275 88.8746 21.81 90.5846 21.33C92.3246 20.82 93.7946 20.565 94.9946 20.565C95.6846 20.565 96.1796 20.73 96.4796 21.06C96.7796 21.36 96.9296 21.885 96.9296 22.635V40.14ZM111.779 8.01C113.129 8.01 114.299 8.295 115.289 8.865C116.279 9.435 117.029 10.14 117.539 10.98C118.079 11.79 118.349 12.6 118.349 13.41C118.349 14.52 118.049 15.45 117.449 16.2C116.849 16.95 116.069 17.325 115.109 17.325C114.209 17.325 113.414 17.01 112.724 16.38C112.034 15.72 111.689 14.97 111.689 14.13C111.689 13.05 112.139 12.18 113.039 11.52C112.949 11.37 112.784 11.25 112.544 11.16C112.334 11.04 112.139 10.98 111.959 10.98C111.239 10.98 110.594 11.475 110.024 12.465C109.484 13.455 109.214 14.595 109.214 15.885C109.214 16.755 109.289 17.595 109.439 18.405C109.619 19.215 109.814 19.875 110.024 20.385C110.264 20.895 110.489 21.15 110.699 21.15H115.019C115.019 23.07 114.764 24.42 114.254 25.2H110.429V39.69C110.429 40.41 110.534 40.98 110.744 41.4C110.984 41.79 111.404 42.09 112.004 42.3C112.634 42.48 113.564 42.57 114.794 42.57C114.794 43.5 114.449 44.31 113.759 45H101.879C101.189 44.31 100.844 43.5 100.844 42.57C101.744 42.57 102.374 42.375 102.734 41.985C103.124 41.595 103.319 40.965 103.319 40.095V25.2H100.574V22.41C101.564 22.17 102.449 21.765 103.229 21.195C102.989 19.755 102.869 18.465 102.869 17.325C102.869 14.265 103.664 11.955 105.254 10.395C106.844 8.805 109.019 8.01 111.779 8.01ZM127.574 13.185C127.574 14.475 127.169 15.51 126.359 16.29C125.579 17.04 124.529 17.415 123.209 17.415C121.919 17.415 120.884 17.04 120.104 16.29C119.354 15.51 118.979 14.475 118.979 13.185C118.979 11.925 119.369 10.905 120.149 10.125C120.959 9.345 122.009 8.955 123.299 8.955C124.589 8.955 125.624 9.345 126.404 10.125C127.184 10.905 127.574 11.925 127.574 13.185ZM126.719 40.14C126.719 41.01 126.929 41.64 127.349 42.03C127.799 42.39 128.474 42.57 129.374 42.57C129.374 43.5 129.029 44.31 128.339 45H118.169C117.479 44.31 117.134 43.5 117.134 42.57C118.034 42.57 118.679 42.39 119.069 42.03C119.489 41.64 119.699 40.995 119.699 40.095V27.045C119.699 26.205 119.489 25.605 119.069 25.245C118.679 24.885 117.899 24.705 116.729 24.705V22.725C117.449 22.275 118.664 21.81 120.374 21.33C122.114 20.82 123.584 20.565 124.784 20.565C125.474 20.565 125.969 20.73 126.269 21.06C126.569 21.36 126.719 21.885 126.719 22.635V40.14ZM149.068 39.285C149.308 39.555 149.503 39.915 149.653 40.365C149.833 40.815 149.923 41.205 149.923 41.535C149.923 42.195 149.578 42.84 148.888 43.47C148.198 44.1 147.268 44.625 146.098 45.045C144.958 45.465 143.713 45.675 142.363 45.675C140.173 45.675 138.238 45.18 136.558 44.19C134.878 43.2 133.573 41.775 132.643 39.915C131.713 38.055 131.248 35.85 131.248 33.3C131.248 30.69 131.743 28.425 132.733 26.505C133.753 24.585 135.148 23.115 136.918 22.095C138.718 21.075 140.728 20.565 142.948 20.565C145.168 20.565 146.893 21.105 148.123 22.185C149.383 23.235 150.013 24.585 150.013 26.235C150.013 27.645 149.653 28.755 148.933 29.565C148.213 30.345 147.283 30.735 146.143 30.735C145.213 30.735 144.433 30.39 143.803 29.7C143.173 29.01 142.858 28.17 142.858 27.18C142.858 26.52 142.978 25.965 143.218 25.515C143.458 25.065 143.788 24.66 144.208 24.3C143.728 24.03 143.293 23.895 142.903 23.895C141.883 23.895 140.983 24.51 140.203 25.74C139.423 26.94 139.033 28.935 139.033 31.725C139.033 34.905 139.498 37.2 140.428 38.61C141.358 39.99 142.723 40.68 144.523 40.68C145.363 40.68 146.188 40.56 146.998 40.32C147.838 40.08 148.528 39.735 149.068 39.285Z" fill="white"/>
<path d="M45.0352 62.3789C45.4062 62.3789 45.7318 62.418 46.0117 62.4961V63.9805C45.8815 63.9544 45.6211 63.9414 45.2305 63.9414C44.8398 63.9414 44.3027 64.0781 43.6191 64.3516C42.9421 64.6185 42.4212 64.9245 42.0566 65.2695V74H40.2012V62.584H41.5977L41.8906 64.459C42.9583 63.0723 44.0065 62.3789 45.0352 62.3789ZM55.377 66.998C55.377 66.0671 55.1816 65.2956 54.791 64.6836C54.3613 64.0195 53.6647 63.6842 52.7012 63.6777C50.7936 63.6777 49.7357 64.8984 49.5273 67.3398H55.377V66.998ZM49.4883 68.502C49.5143 70.7155 50.1979 72.0892 51.5391 72.623C51.9297 72.7793 52.3822 72.8574 52.8965 72.8574C53.9967 72.8574 54.9928 72.444 55.8848 71.6172L56.4902 73.0332C56.0085 73.3717 55.416 73.6517 54.7129 73.873C54.0163 74.0879 53.3034 74.1953 52.5742 74.1953C51.8516 74.1953 51.1582 74.0456 50.4941 73.7461C49.8236 73.4401 49.2865 73.0202 48.8828 72.4863C48.0625 71.4121 47.6556 70.0352 47.6621 68.3555C47.6686 66.7214 48.0755 65.3379 48.8828 64.2051C49.2865 63.6452 49.8138 63.2025 50.4648 62.877C51.1159 62.5449 51.8288 62.3789 52.6035 62.3789C53.3848 62.3789 54.0553 62.5124 54.6152 62.7793C55.1816 63.0397 55.6374 63.401 55.9824 63.8633C56.6725 64.7878 57.0176 65.9661 57.0176 67.3984C57.0176 67.6914 56.9818 68.0592 56.9102 68.502H49.4883ZM67.916 64.5566C68.3652 63.8991 68.9609 63.3717 69.7031 62.9746C70.4518 62.5775 71.1712 62.3789 71.8613 62.3789C72.5514 62.3789 73.1243 62.4896 73.5801 62.7109C74.0358 62.9323 74.4004 63.2383 74.6738 63.6289C75.2207 64.4036 75.4941 65.3672 75.4941 66.5195V74H73.6387V66.5C73.6452 65.4583 73.4792 64.7357 73.1406 64.332C72.8346 63.9674 72.3691 63.7819 71.7441 63.7754C70.5658 63.7754 69.3874 64.3906 68.209 65.6211V74H66.3535V66.5C66.3535 65.4388 66.1908 64.7129 65.8652 64.3223C65.5592 63.9577 65.097 63.7754 64.4785 63.7754C63.4824 63.7754 62.3757 64.3841 61.1582 65.6016V74H59.3027V62.584H60.6797L60.9434 64.5957C61.36 63.9316 61.9102 63.3978 62.5938 62.9941C63.2839 62.584 64.0065 62.3789 64.7617 62.3789C65.5234 62.3789 66.181 62.5677 66.7344 62.9453C67.2943 63.3229 67.6882 63.86 67.916 64.5566ZM79.8398 74H78.0625V62.584H79.8398V74ZM77.8965 59.7324C77.8965 59.4199 78.0007 59.153 78.209 58.9316C78.4238 58.7103 78.6842 58.5996 78.9902 58.5996C79.3027 58.5996 79.5566 58.7103 79.752 58.9316C79.9473 59.1465 80.0449 59.4102 80.0449 59.7227C80.0449 60.0352 79.9473 60.3021 79.752 60.5234C79.5566 60.7383 79.3027 60.8457 78.9902 60.8457C78.6777 60.8457 78.4173 60.7383 78.209 60.5234C78.0007 60.3021 77.8965 60.0384 77.8965 59.7324ZM84.3027 65.4062V74H82.4473V62.584H83.8145L84.0488 64.4102C84.498 63.8438 85.1523 63.3685 86.0117 62.9844C86.8776 62.5938 87.6589 62.3984 88.3555 62.3984C89.0586 62.3984 89.6478 62.5189 90.123 62.7598C90.6048 62.9941 90.9824 63.3229 91.2559 63.7461C91.7897 64.5729 92.0566 65.6243 92.0566 66.9004V74H90.2012V66.9004C90.1947 65.7611 89.9896 64.9375 89.5859 64.4297C89.2409 64 88.7624 63.7852 88.1504 63.7852C87.5384 63.7786 86.8483 63.9512 86.0801 64.3027C85.3184 64.6478 84.7259 65.0156 84.3027 65.4062ZM95.0254 71.6758C94.7845 71.168 94.6087 70.6341 94.498 70.0742C94.3939 69.5143 94.3418 68.9349 94.3418 68.3359C94.3418 67.7305 94.3939 67.1543 94.498 66.6074C94.6022 66.0605 94.7682 65.5299 94.9961 65.0156C95.2305 64.4948 95.5169 64.0423 95.8555 63.6582C96.6172 62.8053 97.6165 62.3789 98.8535 62.3789C99.498 62.3789 100.156 62.5254 100.826 62.8184C101.503 63.1048 102.034 63.4857 102.418 63.9609V58.2383L104.273 58.5801V74H102.896L102.623 72.252C102.193 72.8053 101.656 73.2676 101.012 73.6387C100.374 74.0098 99.7227 74.1953 99.0586 74.1953C98.401 74.1953 97.8021 74.0879 97.2617 73.873C96.7279 73.6517 96.2819 73.3587 95.9238 72.9941C95.5658 72.623 95.2663 72.1836 95.0254 71.6758ZM98.9707 63.7754C97.0697 63.7754 96.1191 65.2891 96.1191 68.3164C96.1191 71.3438 97.0892 72.8574 99.0293 72.8574C99.6283 72.8574 100.24 72.7142 100.865 72.4277C101.497 72.1413 102.014 71.7702 102.418 71.3145V65.1816C101.188 64.2441 100.038 63.7754 98.9707 63.7754ZM114.303 66.998C114.303 66.0671 114.107 65.2956 113.717 64.6836C113.287 64.0195 112.59 63.6842 111.627 63.6777C109.719 63.6777 108.661 64.8984 108.453 67.3398H114.303V66.998ZM108.414 68.502C108.44 70.7155 109.124 72.0892 110.465 72.623C110.855 72.7793 111.308 72.8574 111.822 72.8574C112.923 72.8574 113.919 72.444 114.811 71.6172L115.416 73.0332C114.934 73.3717 114.342 73.6517 113.639 73.873C112.942 74.0879 112.229 74.1953 111.5 74.1953C110.777 74.1953 110.084 74.0456 109.42 73.7461C108.749 73.4401 108.212 73.0202 107.809 72.4863C106.988 71.4121 106.581 70.0352 106.588 68.3555C106.594 66.7214 107.001 65.3379 107.809 64.2051C108.212 63.6452 108.74 63.2025 109.391 62.877C110.042 62.5449 110.755 62.3789 111.529 62.3789C112.311 62.3789 112.981 62.5124 113.541 62.7793C114.107 63.0397 114.563 63.401 114.908 63.8633C115.598 64.7878 115.943 65.9661 115.943 67.3984C115.943 67.6914 115.908 68.0592 115.836 68.502H108.414ZM123.062 62.3789C123.434 62.3789 123.759 62.418 124.039 62.4961V63.9805C123.909 63.9544 123.648 63.9414 123.258 63.9414C122.867 63.9414 122.33 64.0781 121.646 64.3516C120.969 64.6185 120.449 64.9245 120.084 65.2695V74H118.229V62.584H119.625L119.918 64.459C120.986 63.0723 122.034 62.3789 123.062 62.3789Z" fill="white" fill-opacity="0.6"/>
<circle cx="79" cy="54" r="6" fill="#D9D9D9"/>
</svg>
