<svg width="40" height="52" viewBox="0 0 40 52" fill="none" xmlns="http://www.w3.org/2000/svg">
<path d="M3.19096 37.6024L3.16121 41.4882L8.78063 37.6024H19.6141C21.0794 37.6024 22.2658 36.2344 22.2658 34.5432V22.6676C22.2658 20.9765 21.0794 19.6085 19.6141 19.6085H3.19096C1.72567 19.6085 0.539307 20.9765 0.539307 22.6676V34.5432C0.539307 36.2344 1.72567 37.6024 3.19096 37.6024Z" fill="#9ED5E4"/>
<path d="M3.16116 42.1008C3.06818 42.1008 2.97893 42.0757 2.89711 42.0211C2.72603 41.912 2.6219 41.7064 2.6219 41.4882L2.64793 38.1605C1.14545 37.8625 0 36.3561 0 34.5432V22.6676C0 20.645 1.43182 19 3.19091 19H19.6103C21.3694 19 22.8012 20.645 22.8012 22.6676V34.5432C22.8012 36.5659 21.3694 38.2108 19.6103 38.2108H8.93306L3.4438 42.0085C3.35455 42.0673 3.25785 42.1008 3.16116 42.1008ZM3.19091 20.2169C2.02686 20.2169 1.07851 21.3164 1.07851 22.6676V34.5432C1.07851 35.8945 2.02686 36.9939 3.19463 36.9939C3.33967 36.9939 3.47727 37.0568 3.57769 37.1743C3.6781 37.2876 3.73388 37.4471 3.73388 37.6066L3.71157 40.3971L8.50165 37.082C8.58719 37.0233 8.68388 36.9939 8.7843 36.9939H19.6178C20.7855 36.9939 21.7339 35.8945 21.7339 34.5432V22.6676C21.7339 21.3164 20.7855 20.2169 19.6178 20.2169H3.19091Z" fill="#154B8B"/>
<path d="M32.0243 46.465L32.0653 51.3915L24.7909 46.465H10.7628C8.86609 46.465 7.32642 44.7278 7.32642 42.5876V27.5396C7.32642 25.3994 8.86609 23.6621 10.7628 23.6621H32.0243C33.921 23.6621 35.4607 25.3994 35.4607 27.5396V42.5918C35.4607 44.7278 33.9248 46.465 32.0243 46.465Z" fill="#FAFCFC"/>
<path d="M32.0652 52C31.9685 52 31.8718 51.9706 31.7863 51.9119L24.6421 47.0735H10.7627C8.57223 47.0735 6.78711 45.0634 6.78711 42.5876V27.5395C6.78711 25.0679 8.56851 23.0536 10.7627 23.0536H32.0243C34.2148 23.0536 35.9999 25.0637 35.9999 27.5395V42.5918C35.9999 44.8578 34.5049 46.7336 32.571 47.0357L32.6082 51.3915C32.6082 51.6097 32.5078 51.8153 32.3367 51.9245C32.2512 51.9706 32.1582 52 32.0652 52ZM10.7627 24.2706C9.16727 24.2706 7.86562 25.7351 7.86562 27.5395V42.5918C7.86562 44.392 9.16356 45.8607 10.7627 45.8607H24.7908C24.8875 45.8607 24.9842 45.8901 25.0698 45.9489L31.5222 50.3173L31.4925 46.4776C31.4925 46.3139 31.5483 46.1587 31.6487 46.0454C31.7491 45.9321 31.8867 45.8649 32.0317 45.8649C33.6272 45.8649 34.9288 44.4004 34.9288 42.596V27.5395C34.9288 25.7393 33.6309 24.2706 32.0317 24.2706H10.7627Z" fill="#154B8B"/>
<path d="M12.905 34.9964C12.905 35.495 13.0904 35.9732 13.4203 36.3258C13.7501 36.6783 14.1976 36.8764 14.6641 36.8764C15.1307 36.8764 15.5781 36.6783 15.908 36.3258C16.2379 35.9732 16.4232 35.495 16.4232 34.9964C16.4232 34.4978 16.2379 34.0197 15.908 33.6671C15.5781 33.3146 15.1307 33.1165 14.6641 33.1165C14.1976 33.1165 13.7501 33.3146 13.4203 33.6671C13.0904 34.0197 12.905 34.4978 12.905 34.9964Z" fill="#144884"/>
<path d="M19.6365 34.9964C19.6365 35.495 19.8218 35.9732 20.1517 36.3258C20.4816 36.6783 20.929 36.8764 21.3956 36.8764C21.8621 36.8764 22.3095 36.6783 22.6394 36.3258C22.9693 35.9732 23.1547 35.495 23.1547 34.9964C23.1547 34.4978 22.9693 34.0197 22.6394 33.6671C22.3095 33.3146 21.8621 33.1165 21.3956 33.1165C20.929 33.1165 20.4816 33.3146 20.1517 33.6671C19.8218 34.0197 19.6365 34.4978 19.6365 34.9964Z" fill="#144884"/>
<path d="M26.364 34.9964C26.364 35.495 26.5493 35.9732 26.8792 36.3258C27.2091 36.6783 27.6566 36.8764 28.1231 36.8764C28.5896 36.8764 29.0371 36.6783 29.367 36.3258C29.6969 35.9732 29.8822 35.495 29.8822 34.9964C29.8822 34.4978 29.6969 34.0197 29.367 33.6671C29.0371 33.3146 28.5896 33.1165 28.1231 33.1165C27.6566 33.1165 27.2091 33.3146 26.8792 33.6671C26.5493 34.0197 26.364 34.4978 26.364 34.9964Z" fill="#144884"/>
<path d="M29.216 18.552C29.136 18.504 29.072 18.424 29.024 18.312C28.992 18.184 28.936 18.08 28.856 18C28.792 17.92 28.768 17.784 28.784 17.592C28.8 17.4 28.936 17.208 29.192 17.016C29.464 16.824 29.76 16.728 30.08 16.728C30.4 16.728 31.184 16.472 32.432 15.96C33.696 15.432 34.936 14.784 36.152 14.016C37.368 13.248 38.008 12.6 38.072 12.072C38.072 11.544 36.968 11.28 34.76 11.28C32.552 11.28 30.016 11.992 27.152 13.416C27.072 13.464 26.88 13.488 26.576 13.488C26.288 13.488 25.944 13.392 25.544 13.2C25.144 12.992 24.936 12.752 24.92 12.48C24.952 12.256 25.04 12.088 25.184 11.976C25.936 11.336 27.216 10.704 29.024 10.08C30.848 9.44 32.6 9.12 34.28 9.12C36.664 9.12 38.2 9.712 38.888 10.896C39.176 11.392 39.32 11.936 39.32 12.528C39.16 13.664 37.824 14.952 35.312 16.392L35.192 16.464C35.064 16.496 35 16.544 35 16.608L35.12 16.728C35.648 16.952 36.048 17.216 36.32 17.52C36.608 17.808 36.752 18.224 36.752 18.768C36.752 19.68 36.44 20.536 35.816 21.336C35.192 22.136 34.424 22.792 33.512 23.304C32.616 23.816 31.656 24.256 30.632 24.624C28.744 25.312 27.336 25.656 26.408 25.656C25.496 25.656 24.8 25.472 24.32 25.104C23.84 24.752 23.6 24.384 23.6 24C23.616 23.92 23.656 23.848 23.72 23.784C23.784 23.928 24.024 24 24.44 24C25.64 24 27.072 23.696 28.736 23.088C30.4 22.48 31.856 21.744 33.104 20.88C34.352 20.016 35.024 19.256 35.12 18.6V18.552C35.12 18.408 35.024 18.296 34.832 18.216C34.64 18.12 34.448 18.064 34.256 18.048H33.968C33.104 18.048 32.184 18.144 31.208 18.336C30.248 18.512 29.696 18.6 29.552 18.6C29.424 18.6 29.312 18.584 29.216 18.552Z" fill="#F20A0A"/>
</svg>
