<svg width="382" height="105" viewBox="0 0 382 105" fill="none" xmlns="http://www.w3.org/2000/svg">
<path d="M3.108 12L0.324 3.6H1.944L4.428 11.196H3.624L6.204 3.6H7.644L10.152 11.196H9.372L11.916 3.6H13.404L10.62 12H8.964L6.672 5.148H7.104L4.776 12H3.108ZM18.3427 5.52C18.8547 5.52 19.3107 5.62 19.7107 5.82C20.1187 6.02 20.4387 6.328 20.6707 6.744C20.9027 7.152 21.0187 7.68 21.0187 8.328V12H19.5187V8.52C19.5187 7.952 19.3827 7.528 19.1107 7.248C18.8467 6.968 18.4747 6.828 17.9947 6.828C17.6427 6.828 17.3307 6.9 17.0587 7.044C16.7867 7.188 16.5747 7.404 16.4227 7.692C16.2787 7.972 16.2067 8.328 16.2067 8.76V12H14.7067V3.096H16.2067V7.32L15.8827 6.792C16.1067 6.384 16.4307 6.072 16.8547 5.856C17.2867 5.632 17.7827 5.52 18.3427 5.52ZM25.9452 12.084C25.2332 12.084 24.6092 11.944 24.0732 11.664C23.5452 11.376 23.1332 10.984 22.8372 10.488C22.5492 9.992 22.4052 9.428 22.4052 8.796C22.4052 8.156 22.5452 7.592 22.8252 7.104C23.1132 6.608 23.5052 6.22 24.0012 5.94C24.5052 5.66 25.0772 5.52 25.7172 5.52C26.3412 5.52 26.8972 5.656 27.3852 5.928C27.8732 6.2 28.2572 6.584 28.5372 7.08C28.8172 7.576 28.9572 8.16 28.9572 8.832C28.9572 8.896 28.9532 8.968 28.9452 9.048C28.9452 9.128 28.9412 9.204 28.9332 9.276H23.5932V8.28H28.1412L27.5532 8.592C27.5612 8.224 27.4852 7.9 27.3252 7.62C27.1652 7.34 26.9452 7.12 26.6652 6.96C26.3932 6.8 26.0772 6.72 25.7172 6.72C25.3492 6.72 25.0252 6.8 24.7452 6.96C24.4732 7.12 24.2572 7.344 24.0972 7.632C23.9452 7.912 23.8692 8.244 23.8692 8.628V8.868C23.8692 9.252 23.9572 9.592 24.1332 9.888C24.3092 10.184 24.5572 10.412 24.8772 10.572C25.1972 10.732 25.5652 10.812 25.9812 10.812C26.3412 10.812 26.6652 10.756 26.9532 10.644C27.2412 10.532 27.4972 10.356 27.7212 10.116L28.5252 11.04C28.2372 11.376 27.8732 11.636 27.4332 11.82C27.0012 11.996 26.5052 12.084 25.9452 12.084ZM34.0341 5.52C34.5461 5.52 35.0021 5.62 35.4021 5.82C35.8101 6.02 36.1301 6.328 36.3621 6.744C36.5941 7.152 36.7101 7.68 36.7101 8.328V12H35.2101V8.52C35.2101 7.952 35.0741 7.528 34.8021 7.248C34.5381 6.968 34.1661 6.828 33.6861 6.828C33.3341 6.828 33.0221 6.9 32.7501 7.044C32.4781 7.188 32.2661 7.404 32.1141 7.692C31.9701 7.972 31.8981 8.328 31.8981 8.76V12H30.3981V5.592H31.8261V7.32L31.5741 6.792C31.7981 6.384 32.1221 6.072 32.5461 5.856C32.9781 5.632 33.4741 5.52 34.0341 5.52ZM42.4573 14.412C42.1453 14.412 41.8333 14.36 41.5213 14.256C41.2093 14.152 40.9493 14.008 40.7413 13.824L41.3413 12.72C41.4933 12.856 41.6653 12.964 41.8573 13.044C42.0493 13.124 42.2453 13.164 42.4453 13.164C42.7173 13.164 42.9373 13.096 43.1053 12.96C43.2733 12.824 43.4293 12.596 43.5733 12.276L43.9453 11.436L44.0653 11.256L46.4893 5.592H47.9293L44.9293 12.516C44.7293 12.996 44.5053 13.376 44.2573 13.656C44.0173 13.936 43.7453 14.132 43.4413 14.244C43.1453 14.356 42.8173 14.412 42.4573 14.412ZM43.7773 12.228L40.8853 5.592H42.4453L44.7973 11.124L43.7773 12.228ZM51.571 12.084C50.915 12.084 50.331 11.944 49.819 11.664C49.307 11.376 48.903 10.984 48.607 10.488C48.311 9.992 48.163 9.428 48.163 8.796C48.163 8.156 48.311 7.592 48.607 7.104C48.903 6.608 49.307 6.22 49.819 5.94C50.331 5.66 50.915 5.52 51.571 5.52C52.235 5.52 52.823 5.66 53.335 5.94C53.855 6.22 54.259 6.604 54.547 7.092C54.843 7.58 54.991 8.148 54.991 8.796C54.991 9.428 54.843 9.992 54.547 10.488C54.259 10.984 53.855 11.376 53.335 11.664C52.823 11.944 52.235 12.084 51.571 12.084ZM51.571 10.8C51.939 10.8 52.267 10.72 52.555 10.56C52.843 10.4 53.067 10.168 53.227 9.864C53.395 9.56 53.479 9.204 53.479 8.796C53.479 8.38 53.395 8.024 53.227 7.728C53.067 7.424 52.843 7.192 52.555 7.032C52.267 6.872 51.943 6.792 51.583 6.792C51.215 6.792 50.887 6.872 50.599 7.032C50.319 7.192 50.095 7.424 49.927 7.728C49.759 8.024 49.675 8.38 49.675 8.796C49.675 9.204 49.759 9.56 49.927 9.864C50.095 10.168 50.319 10.4 50.599 10.56C50.887 10.72 51.211 10.8 51.571 10.8ZM59.1374 12.084C58.5934 12.084 58.1134 11.984 57.6974 11.784C57.2814 11.576 56.9574 11.264 56.7254 10.848C56.4934 10.424 56.3774 9.892 56.3774 9.252V5.592H57.8774V9.048C57.8774 9.624 58.0054 10.056 58.2614 10.344C58.5254 10.624 58.8974 10.764 59.3774 10.764C59.7294 10.764 60.0334 10.692 60.2894 10.548C60.5534 10.404 60.7574 10.188 60.9014 9.9C61.0534 9.612 61.1294 9.256 61.1294 8.832V5.592H62.6294V12H61.2014V10.272L61.4534 10.8C61.2374 11.216 60.9214 11.536 60.5054 11.76C60.0894 11.976 59.6334 12.084 59.1374 12.084ZM64.1974 6.732L64.8934 4.068L65.0974 4.968C64.8174 4.968 64.5814 4.88 64.3894 4.704C64.2054 4.528 64.1134 4.292 64.1134 3.996C64.1134 3.7 64.2054 3.464 64.3894 3.288C64.5814 3.104 64.8134 3.012 65.0854 3.012C65.3654 3.012 65.5974 3.104 65.7814 3.288C65.9654 3.472 66.0574 3.708 66.0574 3.996C66.0574 4.084 66.0494 4.176 66.0334 4.272C66.0254 4.36 66.0014 4.464 65.9614 4.584C65.9294 4.696 65.8734 4.844 65.7934 5.028L65.1694 6.732H64.1974ZM67.5231 12V5.592H68.9511V7.356L68.7831 6.84C68.9751 6.408 69.2751 6.08 69.6831 5.856C70.0991 5.632 70.6151 5.52 71.2311 5.52V6.948C71.1671 6.932 71.1071 6.924 71.0511 6.924C70.9951 6.916 70.9391 6.912 70.8831 6.912C70.3151 6.912 69.8631 7.08 69.5271 7.416C69.1911 7.744 69.0231 8.236 69.0231 8.892V12H67.5231ZM75.4569 12.084C74.7449 12.084 74.1209 11.944 73.5849 11.664C73.0569 11.376 72.6449 10.984 72.3489 10.488C72.0609 9.992 71.9169 9.428 71.9169 8.796C71.9169 8.156 72.0569 7.592 72.3369 7.104C72.6249 6.608 73.0169 6.22 73.5129 5.94C74.0169 5.66 74.5889 5.52 75.2289 5.52C75.8529 5.52 76.4089 5.656 76.8969 5.928C77.3849 6.2 77.7689 6.584 78.0489 7.08C78.3289 7.576 78.4689 8.16 78.4689 8.832C78.4689 8.896 78.4649 8.968 78.4569 9.048C78.4569 9.128 78.4529 9.204 78.4449 9.276H73.1049V8.28H77.6529L77.0649 8.592C77.0729 8.224 76.9969 7.9 76.8369 7.62C76.6769 7.34 76.4569 7.12 76.1769 6.96C75.9049 6.8 75.5889 6.72 75.2289 6.72C74.8609 6.72 74.5369 6.8 74.2569 6.96C73.9849 7.12 73.7689 7.344 73.6089 7.632C73.4569 7.912 73.3809 8.244 73.3809 8.628V8.868C73.3809 9.252 73.4689 9.592 73.6449 9.888C73.8209 10.184 74.0689 10.412 74.3889 10.572C74.7089 10.732 75.0769 10.812 75.4929 10.812C75.8529 10.812 76.1769 10.756 76.4649 10.644C76.7529 10.532 77.0089 10.356 77.2329 10.116L78.0369 11.04C77.7489 11.376 77.3849 11.636 76.9449 11.82C76.5129 11.996 76.0169 12.084 75.4569 12.084ZM86.1062 12.084C85.4502 12.084 84.8662 11.944 84.3542 11.664C83.8422 11.376 83.4382 10.984 83.1422 10.488C82.8462 9.992 82.6982 9.428 82.6982 8.796C82.6982 8.156 82.8462 7.592 83.1422 7.104C83.4382 6.608 83.8422 6.22 84.3542 5.94C84.8662 5.66 85.4502 5.52 86.1062 5.52C86.7702 5.52 87.3582 5.66 87.8702 5.94C88.3902 6.22 88.7942 6.604 89.0822 7.092C89.3782 7.58 89.5262 8.148 89.5262 8.796C89.5262 9.428 89.3782 9.992 89.0822 10.488C88.7942 10.984 88.3902 11.376 87.8702 11.664C87.3582 11.944 86.7702 12.084 86.1062 12.084ZM86.1062 10.8C86.4742 10.8 86.8022 10.72 87.0902 10.56C87.3782 10.4 87.6022 10.168 87.7622 9.864C87.9302 9.56 88.0142 9.204 88.0142 8.796C88.0142 8.38 87.9302 8.024 87.7622 7.728C87.6022 7.424 87.3782 7.192 87.0902 7.032C86.8022 6.872 86.4782 6.792 86.1182 6.792C85.7502 6.792 85.4222 6.872 85.1342 7.032C84.8542 7.192 84.6302 7.424 84.4622 7.728C84.2942 8.024 84.2102 8.38 84.2102 8.796C84.2102 9.204 84.2942 9.56 84.4622 9.864C84.6302 10.168 84.8542 10.4 85.1342 10.56C85.4222 10.72 85.7462 10.8 86.1062 10.8ZM92.4888 12L89.7408 5.592H91.3008L93.6648 11.244H92.8968L95.3448 5.592H96.7848L94.0368 12H92.4888ZM100.559 12.084C99.8465 12.084 99.2225 11.944 98.6865 11.664C98.1585 11.376 97.7465 10.984 97.4505 10.488C97.1625 9.992 97.0185 9.428 97.0185 8.796C97.0185 8.156 97.1585 7.592 97.4385 7.104C97.7265 6.608 98.1185 6.22 98.6145 5.94C99.1185 5.66 99.6905 5.52 100.331 5.52C100.955 5.52 101.511 5.656 101.999 5.928C102.487 6.2 102.871 6.584 103.151 7.08C103.431 7.576 103.571 8.16 103.571 8.832C103.571 8.896 103.567 8.968 103.559 9.048C103.559 9.128 103.555 9.204 103.547 9.276H98.2065V8.28H102.755L102.167 8.592C102.175 8.224 102.099 7.9 101.939 7.62C101.779 7.34 101.559 7.12 101.279 6.96C101.007 6.8 100.691 6.72 100.331 6.72C99.9625 6.72 99.6385 6.8 99.3585 6.96C99.0865 7.12 98.8705 7.344 98.7105 7.632C98.5585 7.912 98.4825 8.244 98.4825 8.628V8.868C98.4825 9.252 98.5705 9.592 98.7465 9.888C98.9225 10.184 99.1705 10.412 99.4905 10.572C99.8105 10.732 100.179 10.812 100.595 10.812C100.955 10.812 101.279 10.756 101.567 10.644C101.855 10.532 102.111 10.356 102.335 10.116L103.139 11.04C102.851 11.376 102.487 11.636 102.047 11.82C101.615 11.996 101.119 12.084 100.559 12.084ZM105.011 12V5.592H106.439V7.356L106.271 6.84C106.463 6.408 106.763 6.08 107.171 5.856C107.587 5.632 108.103 5.52 108.719 5.52V6.948C108.655 6.932 108.595 6.924 108.539 6.924C108.483 6.916 108.427 6.912 108.371 6.912C107.803 6.912 107.351 7.08 107.015 7.416C106.679 7.744 106.511 8.236 106.511 8.892V12H105.011ZM111.642 12L109.29 5.592H110.706L112.722 11.244H112.05L114.162 5.592H115.422L117.474 11.244H116.814L118.89 5.592H120.222L117.858 12H116.418L114.546 6.996H114.99L113.082 12H111.642ZM124.89 5.52C125.402 5.52 125.858 5.62 126.258 5.82C126.666 6.02 126.986 6.328 127.218 6.744C127.45 7.152 127.566 7.68 127.566 8.328V12H126.066V8.52C126.066 7.952 125.93 7.528 125.658 7.248C125.394 6.968 125.022 6.828 124.542 6.828C124.19 6.828 123.878 6.9 123.606 7.044C123.334 7.188 123.122 7.404 122.97 7.692C122.826 7.972 122.754 8.328 122.754 8.76V12H121.254V3.096H122.754V7.32L122.43 6.792C122.654 6.384 122.978 6.072 123.402 5.856C123.834 5.632 124.33 5.52 124.89 5.52ZM132.492 12.084C131.78 12.084 131.156 11.944 130.62 11.664C130.092 11.376 129.68 10.984 129.384 10.488C129.096 9.992 128.952 9.428 128.952 8.796C128.952 8.156 129.092 7.592 129.372 7.104C129.66 6.608 130.052 6.22 130.548 5.94C131.052 5.66 131.624 5.52 132.264 5.52C132.888 5.52 133.444 5.656 133.932 5.928C134.42 6.2 134.804 6.584 135.084 7.08C135.364 7.576 135.504 8.16 135.504 8.832C135.504 8.896 135.5 8.968 135.492 9.048C135.492 9.128 135.488 9.204 135.48 9.276H130.14V8.28H134.688L134.1 8.592C134.108 8.224 134.032 7.9 133.872 7.62C133.712 7.34 133.492 7.12 133.212 6.96C132.94 6.8 132.624 6.72 132.264 6.72C131.896 6.72 131.572 6.8 131.292 6.96C131.02 7.12 130.804 7.344 130.644 7.632C130.492 7.912 130.416 8.244 130.416 8.628V8.868C130.416 9.252 130.504 9.592 130.68 9.888C130.856 10.184 131.104 10.412 131.424 10.572C131.744 10.732 132.112 10.812 132.528 10.812C132.888 10.812 133.212 10.756 133.5 10.644C133.788 10.532 134.044 10.356 134.268 10.116L135.072 11.04C134.784 11.376 134.42 11.636 133.98 11.82C133.548 11.996 133.052 12.084 132.492 12.084ZM136.945 12V3.096H138.445V12H136.945ZM148.502 5.52C149.014 5.52 149.466 5.62 149.858 5.82C150.258 6.02 150.57 6.328 150.794 6.744C151.018 7.152 151.13 7.68 151.13 8.328V12H149.63V8.52C149.63 7.952 149.506 7.528 149.258 7.248C149.01 6.968 148.654 6.828 148.19 6.828C147.862 6.828 147.57 6.9 147.314 7.044C147.066 7.188 146.87 7.4 146.726 7.68C146.59 7.96 146.522 8.316 146.522 8.748V12H145.022V8.52C145.022 7.952 144.898 7.528 144.65 7.248C144.402 6.968 144.046 6.828 143.582 6.828C143.254 6.828 142.962 6.9 142.706 7.044C142.458 7.188 142.262 7.4 142.118 7.68C141.982 7.96 141.914 8.316 141.914 8.748V12H140.414V5.592H141.842V7.296L141.59 6.792C141.806 6.376 142.118 6.06 142.526 5.844C142.942 5.628 143.414 5.52 143.942 5.52C144.542 5.52 145.062 5.668 145.502 5.964C145.95 6.26 146.246 6.708 146.39 7.308L145.802 7.104C146.01 6.624 146.354 6.24 146.834 5.952C147.314 5.664 147.87 5.52 148.502 5.52ZM156.07 12.084C155.358 12.084 154.734 11.944 154.198 11.664C153.67 11.376 153.258 10.984 152.962 10.488C152.674 9.992 152.53 9.428 152.53 8.796C152.53 8.156 152.67 7.592 152.95 7.104C153.238 6.608 153.63 6.22 154.126 5.94C154.63 5.66 155.202 5.52 155.842 5.52C156.466 5.52 157.022 5.656 157.51 5.928C157.998 6.2 158.382 6.584 158.662 7.08C158.942 7.576 159.082 8.16 159.082 8.832C159.082 8.896 159.078 8.968 159.07 9.048C159.07 9.128 159.066 9.204 159.058 9.276H153.718V8.28H158.266L157.678 8.592C157.686 8.224 157.61 7.9 157.45 7.62C157.29 7.34 157.07 7.12 156.79 6.96C156.518 6.8 156.202 6.72 155.842 6.72C155.474 6.72 155.15 6.8 154.87 6.96C154.598 7.12 154.382 7.344 154.222 7.632C154.07 7.912 153.994 8.244 153.994 8.628V8.868C153.994 9.252 154.082 9.592 154.258 9.888C154.434 10.184 154.682 10.412 155.002 10.572C155.322 10.732 155.69 10.812 156.106 10.812C156.466 10.812 156.79 10.756 157.078 10.644C157.366 10.532 157.622 10.356 157.846 10.116L158.65 11.04C158.362 11.376 157.998 11.636 157.558 11.82C157.126 11.996 156.63 12.084 156.07 12.084ZM163.235 12.084C162.619 12.084 162.063 11.948 161.567 11.676C161.079 11.396 160.695 11.012 160.415 10.524C160.135 10.036 159.995 9.46 159.995 8.796C159.995 8.132 160.135 7.556 160.415 7.068C160.695 6.58 161.079 6.2 161.567 5.928C162.063 5.656 162.619 5.52 163.235 5.52C163.771 5.52 164.251 5.64 164.675 5.88C165.099 6.112 165.435 6.468 165.683 6.948C165.931 7.428 166.055 8.044 166.055 8.796C166.055 9.54 165.935 10.156 165.695 10.644C165.455 11.124 165.123 11.484 164.699 11.724C164.275 11.964 163.787 12.084 163.235 12.084ZM163.415 10.8C163.775 10.8 164.095 10.72 164.375 10.56C164.663 10.4 164.891 10.168 165.059 9.864C165.235 9.56 165.323 9.204 165.323 8.796C165.323 8.38 165.235 8.024 165.059 7.728C164.891 7.424 164.663 7.192 164.375 7.032C164.095 6.872 163.775 6.792 163.415 6.792C163.055 6.792 162.731 6.872 162.443 7.032C162.163 7.192 161.935 7.424 161.759 7.728C161.591 8.024 161.507 8.38 161.507 8.796C161.507 9.204 161.591 9.56 161.759 9.864C161.935 10.168 162.163 10.4 162.443 10.56C162.731 10.72 163.055 10.8 163.415 10.8ZM165.359 12V10.488L165.419 8.784L165.299 7.08V3.096H166.787V12H165.359ZM175.63 12.084C175.086 12.084 174.602 11.964 174.178 11.724C173.754 11.484 173.418 11.124 173.17 10.644C172.93 10.156 172.81 9.54 172.81 8.796C172.81 8.044 172.934 7.428 173.182 6.948C173.438 6.468 173.778 6.112 174.202 5.88C174.634 5.64 175.11 5.52 175.63 5.52C176.262 5.52 176.818 5.656 177.298 5.928C177.786 6.2 178.17 6.58 178.45 7.068C178.738 7.556 178.882 8.132 178.882 8.796C178.882 9.46 178.738 10.036 178.45 10.524C178.17 11.012 177.786 11.396 177.298 11.676C176.818 11.948 176.262 12.084 175.63 12.084ZM172.078 12V3.096H173.578V7.08L173.458 8.784L173.506 10.488V12H172.078ZM175.462 10.8C175.822 10.8 176.142 10.72 176.422 10.56C176.71 10.4 176.938 10.168 177.106 9.864C177.274 9.56 177.358 9.204 177.358 8.796C177.358 8.38 177.274 8.024 177.106 7.728C176.938 7.424 176.71 7.192 176.422 7.032C176.142 6.872 175.822 6.792 175.462 6.792C175.102 6.792 174.778 6.872 174.49 7.032C174.202 7.192 173.974 7.424 173.806 7.728C173.638 8.024 173.554 8.38 173.554 8.796C173.554 9.204 173.638 9.56 173.806 9.864C173.974 10.168 174.202 10.4 174.49 10.56C174.778 10.72 175.102 10.8 175.462 10.8ZM180.657 14.412C180.345 14.412 180.033 14.36 179.721 14.256C179.409 14.152 179.149 14.008 178.941 13.824L179.541 12.72C179.693 12.856 179.865 12.964 180.057 13.044C180.249 13.124 180.445 13.164 180.645 13.164C180.917 13.164 181.137 13.096 181.305 12.96C181.473 12.824 181.629 12.596 181.773 12.276L182.145 11.436L182.265 11.256L184.689 5.592H186.129L183.129 12.516C182.929 12.996 182.705 13.376 182.457 13.656C182.217 13.936 181.945 14.132 181.641 14.244C181.345 14.356 181.017 14.412 180.657 14.412ZM181.977 12.228L179.085 5.592H180.645L182.997 11.124L181.977 12.228ZM192.794 12.084C192.09 12.084 191.546 11.904 191.162 11.544C190.778 11.176 190.586 10.636 190.586 9.924V4.176H192.086V9.888C192.086 10.192 192.162 10.428 192.314 10.596C192.474 10.764 192.694 10.848 192.974 10.848C193.31 10.848 193.59 10.76 193.814 10.584L194.234 11.652C194.058 11.796 193.842 11.904 193.586 11.976C193.33 12.048 193.066 12.084 192.794 12.084ZM189.53 6.84V5.64H193.802V6.84H189.53ZM199.104 5.52C199.616 5.52 200.072 5.62 200.472 5.82C200.88 6.02 201.2 6.328 201.432 6.744C201.664 7.152 201.78 7.68 201.78 8.328V12H200.28V8.52C200.28 7.952 200.144 7.528 199.872 7.248C199.608 6.968 199.236 6.828 198.756 6.828C198.404 6.828 198.092 6.9 197.82 7.044C197.548 7.188 197.336 7.404 197.184 7.692C197.04 7.972 196.968 8.328 196.968 8.76V12H195.468V3.096H196.968V7.32L196.644 6.792C196.868 6.384 197.192 6.072 197.616 5.856C198.048 5.632 198.544 5.52 199.104 5.52ZM206.707 12.084C205.995 12.084 205.371 11.944 204.835 11.664C204.307 11.376 203.895 10.984 203.599 10.488C203.311 9.992 203.167 9.428 203.167 8.796C203.167 8.156 203.307 7.592 203.587 7.104C203.875 6.608 204.267 6.22 204.763 5.94C205.267 5.66 205.839 5.52 206.479 5.52C207.103 5.52 207.659 5.656 208.147 5.928C208.635 6.2 209.019 6.584 209.299 7.08C209.579 7.576 209.719 8.16 209.719 8.832C209.719 8.896 209.715 8.968 209.707 9.048C209.707 9.128 209.703 9.204 209.695 9.276H204.355V8.28H208.903L208.315 8.592C208.323 8.224 208.247 7.9 208.087 7.62C207.927 7.34 207.707 7.12 207.427 6.96C207.155 6.8 206.839 6.72 206.479 6.72C206.111 6.72 205.787 6.8 205.507 6.96C205.235 7.12 205.019 7.344 204.859 7.632C204.707 7.912 204.631 8.244 204.631 8.628V8.868C204.631 9.252 204.719 9.592 204.895 9.888C205.071 10.184 205.319 10.412 205.639 10.572C205.959 10.732 206.327 10.812 206.743 10.812C207.103 10.812 207.427 10.756 207.715 10.644C208.003 10.532 208.259 10.356 208.483 10.116L209.287 11.04C208.999 11.376 208.635 11.636 208.195 11.82C207.763 11.996 207.267 12.084 206.707 12.084ZM4.932 27V25.704L4.848 25.428V23.16C4.848 22.72 4.716 22.38 4.452 22.14C4.188 21.892 3.788 21.768 3.252 21.768C2.892 21.768 2.536 21.824 2.184 21.936C1.84 22.048 1.548 22.204 1.308 22.404L0.72 21.312C1.064 21.048 1.472 20.852 1.944 20.724C2.424 20.588 2.92 20.52 3.432 20.52C4.36 20.52 5.076 20.744 5.58 21.192C6.092 21.632 6.348 22.316 6.348 23.244V27H4.932ZM2.916 27.084C2.436 27.084 2.016 27.004 1.656 26.844C1.296 26.676 1.016 26.448 0.816 26.16C0.624 25.864 0.528 25.532 0.528 25.164C0.528 24.804 0.612 24.48 0.78 24.192C0.956 23.904 1.24 23.676 1.632 23.508C2.024 23.34 2.544 23.256 3.192 23.256H5.052V24.252H3.3C2.788 24.252 2.444 24.336 2.268 24.504C2.092 24.664 2.004 24.864 2.004 25.104C2.004 25.376 2.112 25.592 2.328 25.752C2.544 25.912 2.844 25.992 3.228 25.992C3.596 25.992 3.924 25.908 4.212 25.74C4.508 25.572 4.72 25.324 4.848 24.996L5.1 25.896C4.956 26.272 4.696 26.564 4.32 26.772C3.952 26.98 3.484 27.084 2.916 27.084ZM16.3611 20.52C16.8731 20.52 17.3251 20.62 17.7171 20.82C18.1171 21.02 18.4291 21.328 18.6531 21.744C18.8771 22.152 18.9891 22.68 18.9891 23.328V27H17.4891V23.52C17.4891 22.952 17.3651 22.528 17.1171 22.248C16.8691 21.968 16.5131 21.828 16.0491 21.828C15.7211 21.828 15.4291 21.9 15.1731 22.044C14.9251 22.188 14.7291 22.4 14.5851 22.68C14.4491 22.96 14.3811 23.316 14.3811 23.748V27H12.8811V23.52C12.8811 22.952 12.7571 22.528 12.5091 22.248C12.2611 21.968 11.9051 21.828 11.4411 21.828C11.1131 21.828 10.8211 21.9 10.5651 22.044C10.3171 22.188 10.1211 22.4 9.97706 22.68C9.84106 22.96 9.77306 23.316 9.77306 23.748V27H8.27306V20.592H9.70106V22.296L9.44906 21.792C9.66506 21.376 9.97706 21.06 10.3851 20.844C10.8011 20.628 11.2731 20.52 11.8011 20.52C12.4011 20.52 12.9211 20.668 13.3611 20.964C13.8091 21.26 14.1051 21.708 14.2491 22.308L13.6611 22.104C13.8691 21.624 14.2131 21.24 14.6931 20.952C15.1731 20.664 15.7291 20.52 16.3611 20.52ZM23.7976 27.084C23.1416 27.084 22.5576 26.944 22.0456 26.664C21.5336 26.376 21.1296 25.984 20.8336 25.488C20.5376 24.992 20.3896 24.428 20.3896 23.796C20.3896 23.156 20.5376 22.592 20.8336 22.104C21.1296 21.608 21.5336 21.22 22.0456 20.94C22.5576 20.66 23.1416 20.52 23.7976 20.52C24.4616 20.52 25.0496 20.66 25.5616 20.94C26.0816 21.22 26.4856 21.604 26.7736 22.092C27.0696 22.58 27.2176 23.148 27.2176 23.796C27.2176 24.428 27.0696 24.992 26.7736 25.488C26.4856 25.984 26.0816 26.376 25.5616 26.664C25.0496 26.944 24.4616 27.084 23.7976 27.084ZM23.7976 25.8C24.1656 25.8 24.4936 25.72 24.7816 25.56C25.0696 25.4 25.2936 25.168 25.4536 24.864C25.6216 24.56 25.7056 24.204 25.7056 23.796C25.7056 23.38 25.6216 23.024 25.4536 22.728C25.2936 22.424 25.0696 22.192 24.7816 22.032C24.4936 21.872 24.1696 21.792 23.8096 21.792C23.4416 21.792 23.1136 21.872 22.8256 22.032C22.5456 22.192 22.3216 22.424 22.1536 22.728C21.9856 23.024 21.9016 23.38 21.9016 23.796C21.9016 24.204 21.9856 24.56 22.1536 24.864C22.3216 25.168 22.5456 25.4 22.8256 25.56C23.1136 25.72 23.4376 25.8 23.7976 25.8ZM31.364 27.084C30.82 27.084 30.34 26.984 29.924 26.784C29.508 26.576 29.184 26.264 28.952 25.848C28.72 25.424 28.604 24.892 28.604 24.252V20.592H30.104V24.048C30.104 24.624 30.232 25.056 30.488 25.344C30.752 25.624 31.124 25.764 31.604 25.764C31.956 25.764 32.26 25.692 32.516 25.548C32.78 25.404 32.984 25.188 33.128 24.9C33.28 24.612 33.356 24.256 33.356 23.832V20.592H34.856V27H33.428V25.272L33.68 25.8C33.464 26.216 33.148 26.536 32.732 26.76C32.316 26.976 31.86 27.084 31.364 27.084ZM40.4559 20.52C40.9679 20.52 41.4239 20.62 41.8239 20.82C42.2319 21.02 42.5519 21.328 42.7839 21.744C43.0159 22.152 43.1319 22.68 43.1319 23.328V27H41.6319V23.52C41.6319 22.952 41.4959 22.528 41.2239 22.248C40.9599 21.968 40.5879 21.828 40.1079 21.828C39.7559 21.828 39.4439 21.9 39.1719 22.044C38.8999 22.188 38.6879 22.404 38.5359 22.692C38.3919 22.972 38.3199 23.328 38.3199 23.76V27H36.8199V20.592H38.2479V22.32L37.9959 21.792C38.2199 21.384 38.5439 21.072 38.9679 20.856C39.3999 20.632 39.8959 20.52 40.4559 20.52ZM47.4468 27.084C46.7428 27.084 46.1988 26.904 45.8148 26.544C45.4308 26.176 45.2388 25.636 45.2388 24.924V19.176H46.7388V24.888C46.7388 25.192 46.8148 25.428 46.9668 25.596C47.1268 25.764 47.3468 25.848 47.6268 25.848C47.9628 25.848 48.2428 25.76 48.4668 25.584L48.8868 26.652C48.7108 26.796 48.4948 26.904 48.2388 26.976C47.9828 27.048 47.7188 27.084 47.4468 27.084ZM44.1828 21.84V20.64H48.4548V21.84H44.1828ZM56.3171 27.084C55.6611 27.084 55.0771 26.944 54.5651 26.664C54.0531 26.376 53.6491 25.984 53.3531 25.488C53.0571 24.992 52.9091 24.428 52.9091 23.796C52.9091 23.156 53.0571 22.592 53.3531 22.104C53.6491 21.608 54.0531 21.22 54.5651 20.94C55.0771 20.66 55.6611 20.52 56.3171 20.52C56.9811 20.52 57.5691 20.66 58.0811 20.94C58.6011 21.22 59.0051 21.604 59.2931 22.092C59.5891 22.58 59.7371 23.148 59.7371 23.796C59.7371 24.428 59.5891 24.992 59.2931 25.488C59.0051 25.984 58.6011 26.376 58.0811 26.664C57.5691 26.944 56.9811 27.084 56.3171 27.084ZM56.3171 25.8C56.6851 25.8 57.0131 25.72 57.3011 25.56C57.5891 25.4 57.8131 25.168 57.9731 24.864C58.1411 24.56 58.2251 24.204 58.2251 23.796C58.2251 23.38 58.1411 23.024 57.9731 22.728C57.8131 22.424 57.5891 22.192 57.3011 22.032C57.0131 21.872 56.6891 21.792 56.3291 21.792C55.9611 21.792 55.6331 21.872 55.3451 22.032C55.0651 22.192 54.8411 22.424 54.6731 22.728C54.5051 23.024 54.4211 23.38 54.4211 23.796C54.4211 24.204 54.5051 24.56 54.6731 24.864C54.8411 25.168 55.0651 25.4 55.3451 25.56C55.6331 25.72 55.9571 25.8 56.3171 25.8ZM61.3755 27V20.232C61.3755 19.56 61.5715 19.024 61.9635 18.624C62.3635 18.216 62.9315 18.012 63.6675 18.012C63.9315 18.012 64.1795 18.04 64.4115 18.096C64.6515 18.152 64.8515 18.24 65.0115 18.36L64.6035 19.488C64.4915 19.4 64.3635 19.336 64.2195 19.296C64.0755 19.248 63.9275 19.224 63.7755 19.224C63.4635 19.224 63.2275 19.312 63.0675 19.488C62.9075 19.656 62.8275 19.912 62.8275 20.256V20.976L62.8755 21.648V27H61.3755ZM60.3195 21.84V20.64H64.5915V21.84H60.3195ZM70.3336 27L67.9816 20.592H69.3976L71.4136 26.244H70.7416L72.8536 20.592H74.1136L76.1656 26.244H75.5056L77.5816 20.592H78.9136L76.5496 27H75.1096L73.2376 21.996H73.6816L71.7736 27H70.3336ZM82.6492 27.084C81.9932 27.084 81.4092 26.944 80.8972 26.664C80.3852 26.376 79.9812 25.984 79.6852 25.488C79.3892 24.992 79.2412 24.428 79.2412 23.796C79.2412 23.156 79.3892 22.592 79.6852 22.104C79.9812 21.608 80.3852 21.22 80.8972 20.94C81.4092 20.66 81.9932 20.52 82.6492 20.52C83.3132 20.52 83.9012 20.66 84.4132 20.94C84.9332 21.22 85.3372 21.604 85.6252 22.092C85.9212 22.58 86.0692 23.148 86.0692 23.796C86.0692 24.428 85.9212 24.992 85.6252 25.488C85.3372 25.984 84.9332 26.376 84.4132 26.664C83.9012 26.944 83.3132 27.084 82.6492 27.084ZM82.6492 25.8C83.0172 25.8 83.3452 25.72 83.6332 25.56C83.9212 25.4 84.1452 25.168 84.3052 24.864C84.4732 24.56 84.5572 24.204 84.5572 23.796C84.5572 23.38 84.4732 23.024 84.3052 22.728C84.1452 22.424 83.9212 22.192 83.6332 22.032C83.3452 21.872 83.0212 21.792 82.6612 21.792C82.2932 21.792 81.9652 21.872 81.6772 22.032C81.3972 22.192 81.1732 22.424 81.0052 22.728C80.8372 23.024 80.7532 23.38 80.7532 23.796C80.7532 24.204 80.8372 24.56 81.0052 24.864C81.1732 25.168 81.3972 25.4 81.6772 25.56C81.9652 25.72 82.2892 25.8 82.6492 25.8ZM87.5035 27V20.592H88.9315V22.356L88.7635 21.84C88.9555 21.408 89.2555 21.08 89.6635 20.856C90.0795 20.632 90.5955 20.52 91.2115 20.52V21.948C91.1475 21.932 91.0875 21.924 91.0315 21.924C90.9755 21.916 90.9195 21.912 90.8635 21.912C90.2955 21.912 89.8435 22.08 89.5075 22.416C89.1715 22.744 89.0035 23.236 89.0035 23.892V27H87.5035ZM93.708 25.572L93.744 23.688L97.092 20.592H98.892L96.048 23.448L95.256 24.108L93.708 25.572ZM92.484 27V18.096H93.984V27H92.484ZM97.32 27L94.98 24.108L95.928 22.908L99.144 27H97.32ZM103.957 29.412C103.645 29.412 103.333 29.36 103.021 29.256C102.709 29.152 102.449 29.008 102.241 28.824L102.841 27.72C102.993 27.856 103.165 27.964 103.357 28.044C103.549 28.124 103.745 28.164 103.945 28.164C104.217 28.164 104.437 28.096 104.605 27.96C104.773 27.824 104.929 27.596 105.073 27.276L105.445 26.436L105.565 26.256L107.989 20.592H109.429L106.429 27.516C106.229 27.996 106.005 28.376 105.757 28.656C105.517 28.936 105.245 29.132 104.941 29.244C104.645 29.356 104.317 29.412 103.957 29.412ZM105.277 27.228L102.385 20.592H103.945L106.297 26.124L105.277 27.228ZM113.071 27.084C112.415 27.084 111.831 26.944 111.319 26.664C110.807 26.376 110.403 25.984 110.107 25.488C109.811 24.992 109.663 24.428 109.663 23.796C109.663 23.156 109.811 22.592 110.107 22.104C110.403 21.608 110.807 21.22 111.319 20.94C111.831 20.66 112.415 20.52 113.071 20.52C113.735 20.52 114.323 20.66 114.835 20.94C115.355 21.22 115.759 21.604 116.047 22.092C116.343 22.58 116.491 23.148 116.491 23.796C116.491 24.428 116.343 24.992 116.047 25.488C115.759 25.984 115.355 26.376 114.835 26.664C114.323 26.944 113.735 27.084 113.071 27.084ZM113.071 25.8C113.439 25.8 113.767 25.72 114.055 25.56C114.343 25.4 114.567 25.168 114.727 24.864C114.895 24.56 114.979 24.204 114.979 23.796C114.979 23.38 114.895 23.024 114.727 22.728C114.567 22.424 114.343 22.192 114.055 22.032C113.767 21.872 113.443 21.792 113.083 21.792C112.715 21.792 112.387 21.872 112.099 22.032C111.819 22.192 111.595 22.424 111.427 22.728C111.259 23.024 111.175 23.38 111.175 23.796C111.175 24.204 111.259 24.56 111.427 24.864C111.595 25.168 111.819 25.4 112.099 25.56C112.387 25.72 112.711 25.8 113.071 25.8ZM120.637 27.084C120.093 27.084 119.613 26.984 119.197 26.784C118.781 26.576 118.457 26.264 118.225 25.848C117.993 25.424 117.877 24.892 117.877 24.252V20.592H119.377V24.048C119.377 24.624 119.505 25.056 119.761 25.344C120.025 25.624 120.397 25.764 120.877 25.764C121.229 25.764 121.533 25.692 121.789 25.548C122.053 25.404 122.257 25.188 122.401 24.9C122.553 24.612 122.629 24.256 122.629 23.832V20.592H124.129V27H122.701V25.272L122.953 25.8C122.737 26.216 122.421 26.536 122.005 26.76C121.589 26.976 121.133 27.084 120.637 27.084ZM133.046 20.52C133.558 20.52 134.014 20.62 134.414 20.82C134.822 21.02 135.142 21.328 135.374 21.744C135.606 22.152 135.722 22.68 135.722 23.328V27H134.222V23.52C134.222 22.952 134.086 22.528 133.814 22.248C133.55 21.968 133.178 21.828 132.698 21.828C132.346 21.828 132.034 21.9 131.762 22.044C131.49 22.188 131.278 22.404 131.126 22.692C130.982 22.972 130.91 23.328 130.91 23.76V27H129.41V18.096H130.91V22.32L130.586 21.792C130.81 21.384 131.134 21.072 131.558 20.856C131.99 20.632 132.486 20.52 133.046 20.52ZM141.573 27V25.704L141.489 25.428V23.16C141.489 22.72 141.357 22.38 141.093 22.14C140.829 21.892 140.429 21.768 139.893 21.768C139.533 21.768 139.177 21.824 138.825 21.936C138.481 22.048 138.189 22.204 137.949 22.404L137.361 21.312C137.705 21.048 138.113 20.852 138.585 20.724C139.065 20.588 139.561 20.52 140.073 20.52C141.001 20.52 141.717 20.744 142.221 21.192C142.733 21.632 142.989 22.316 142.989 23.244V27H141.573ZM139.557 27.084C139.077 27.084 138.657 27.004 138.297 26.844C137.937 26.676 137.657 26.448 137.457 26.16C137.265 25.864 137.169 25.532 137.169 25.164C137.169 24.804 137.253 24.48 137.421 24.192C137.597 23.904 137.881 23.676 138.273 23.508C138.665 23.34 139.185 23.256 139.833 23.256H141.693V24.252H139.941C139.429 24.252 139.085 24.336 138.909 24.504C138.733 24.664 138.645 24.864 138.645 25.104C138.645 25.376 138.753 25.592 138.969 25.752C139.185 25.912 139.485 25.992 139.869 25.992C140.237 25.992 140.565 25.908 140.853 25.74C141.149 25.572 141.361 25.324 141.489 24.996L141.741 25.896C141.597 26.272 141.337 26.564 140.961 26.772C140.593 26.98 140.125 27.084 139.557 27.084ZM146.501 27L143.752 20.592H145.312L147.677 26.244H146.909L149.357 20.592H150.797L148.049 27H146.501ZM154.57 27.084C153.858 27.084 153.234 26.944 152.698 26.664C152.17 26.376 151.758 25.984 151.462 25.488C151.174 24.992 151.03 24.428 151.03 23.796C151.03 23.156 151.17 22.592 151.45 22.104C151.738 21.608 152.13 21.22 152.626 20.94C153.13 20.66 153.702 20.52 154.342 20.52C154.966 20.52 155.522 20.656 156.01 20.928C156.498 21.2 156.882 21.584 157.162 22.08C157.442 22.576 157.582 23.16 157.582 23.832C157.582 23.896 157.578 23.968 157.57 24.048C157.57 24.128 157.566 24.204 157.558 24.276H152.218V23.28H156.766L156.178 23.592C156.186 23.224 156.11 22.9 155.95 22.62C155.79 22.34 155.57 22.12 155.29 21.96C155.018 21.8 154.702 21.72 154.342 21.72C153.974 21.72 153.65 21.8 153.37 21.96C153.098 22.12 152.882 22.344 152.722 22.632C152.57 22.912 152.494 23.244 152.494 23.628V23.868C152.494 24.252 152.582 24.592 152.758 24.888C152.934 25.184 153.182 25.412 153.502 25.572C153.822 25.732 154.19 25.812 154.606 25.812C154.966 25.812 155.29 25.756 155.578 25.644C155.866 25.532 156.122 25.356 156.346 25.116L157.15 26.04C156.862 26.376 156.498 26.636 156.058 26.82C155.626 26.996 155.13 27.084 154.57 27.084ZM165.219 27.084C164.563 27.084 163.979 26.944 163.467 26.664C162.955 26.376 162.551 25.984 162.255 25.488C161.959 24.992 161.811 24.428 161.811 23.796C161.811 23.156 161.959 22.592 162.255 22.104C162.551 21.608 162.955 21.22 163.467 20.94C163.979 20.66 164.563 20.52 165.219 20.52C165.883 20.52 166.471 20.66 166.983 20.94C167.503 21.22 167.907 21.604 168.195 22.092C168.491 22.58 168.639 23.148 168.639 23.796C168.639 24.428 168.491 24.992 168.195 25.488C167.907 25.984 167.503 26.376 166.983 26.664C166.471 26.944 165.883 27.084 165.219 27.084ZM165.219 25.8C165.587 25.8 165.915 25.72 166.203 25.56C166.491 25.4 166.715 25.168 166.875 24.864C167.043 24.56 167.127 24.204 167.127 23.796C167.127 23.38 167.043 23.024 166.875 22.728C166.715 22.424 166.491 22.192 166.203 22.032C165.915 21.872 165.591 21.792 165.231 21.792C164.863 21.792 164.535 21.872 164.247 22.032C163.967 22.192 163.743 22.424 163.575 22.728C163.407 23.024 163.323 23.38 163.323 23.796C163.323 24.204 163.407 24.56 163.575 24.864C163.743 25.168 163.967 25.4 164.247 25.56C164.535 25.72 164.859 25.8 165.219 25.8ZM173.71 20.52C174.222 20.52 174.678 20.62 175.078 20.82C175.486 21.02 175.806 21.328 176.038 21.744C176.27 22.152 176.386 22.68 176.386 23.328V27H174.886V23.52C174.886 22.952 174.75 22.528 174.478 22.248C174.214 21.968 173.842 21.828 173.362 21.828C173.01 21.828 172.698 21.9 172.426 22.044C172.154 22.188 171.942 22.404 171.79 22.692C171.646 22.972 171.574 23.328 171.574 23.76V27H170.074V20.592H171.502V22.32L171.25 21.792C171.474 21.384 171.798 21.072 172.222 20.856C172.654 20.632 173.15 20.52 173.71 20.52ZM182.133 29.412C181.821 29.412 181.509 29.36 181.197 29.256C180.885 29.152 180.625 29.008 180.417 28.824L181.017 27.72C181.169 27.856 181.341 27.964 181.533 28.044C181.725 28.124 181.921 28.164 182.121 28.164C182.393 28.164 182.613 28.096 182.781 27.96C182.949 27.824 183.105 27.596 183.249 27.276L183.621 26.436L183.741 26.256L186.165 20.592H187.605L184.605 27.516C184.405 27.996 184.181 28.376 183.933 28.656C183.693 28.936 183.421 29.132 183.117 29.244C182.821 29.356 182.493 29.412 182.133 29.412ZM183.453 27.228L180.561 20.592H182.121L184.473 26.124L183.453 27.228ZM191.247 27.084C190.591 27.084 190.007 26.944 189.495 26.664C188.983 26.376 188.579 25.984 188.283 25.488C187.987 24.992 187.839 24.428 187.839 23.796C187.839 23.156 187.987 22.592 188.283 22.104C188.579 21.608 188.983 21.22 189.495 20.94C190.007 20.66 190.591 20.52 191.247 20.52C191.911 20.52 192.499 20.66 193.011 20.94C193.531 21.22 193.935 21.604 194.223 22.092C194.519 22.58 194.667 23.148 194.667 23.796C194.667 24.428 194.519 24.992 194.223 25.488C193.935 25.984 193.531 26.376 193.011 26.664C192.499 26.944 191.911 27.084 191.247 27.084ZM191.247 25.8C191.615 25.8 191.943 25.72 192.231 25.56C192.519 25.4 192.743 25.168 192.903 24.864C193.071 24.56 193.155 24.204 193.155 23.796C193.155 23.38 193.071 23.024 192.903 22.728C192.743 22.424 192.519 22.192 192.231 22.032C191.943 21.872 191.619 21.792 191.259 21.792C190.891 21.792 190.563 21.872 190.275 22.032C189.995 22.192 189.771 22.424 189.603 22.728C189.435 23.024 189.351 23.38 189.351 23.796C189.351 24.204 189.435 24.56 189.603 24.864C189.771 25.168 189.995 25.4 190.275 25.56C190.563 25.72 190.887 25.8 191.247 25.8ZM198.813 27.084C198.269 27.084 197.789 26.984 197.373 26.784C196.957 26.576 196.633 26.264 196.401 25.848C196.169 25.424 196.053 24.892 196.053 24.252V20.592H197.553V24.048C197.553 24.624 197.681 25.056 197.937 25.344C198.201 25.624 198.573 25.764 199.053 25.764C199.405 25.764 199.709 25.692 199.965 25.548C200.229 25.404 200.433 25.188 200.577 24.9C200.729 24.612 200.805 24.256 200.805 23.832V20.592H202.305V27H200.877V25.272L201.129 25.8C200.913 26.216 200.597 26.536 200.181 26.76C199.765 26.976 199.309 27.084 198.813 27.084ZM204.269 27V20.592H205.697V22.356L205.529 21.84C205.721 21.408 206.021 21.08 206.429 20.856C206.845 20.632 207.361 20.52 207.977 20.52V21.948C207.913 21.932 207.853 21.924 207.797 21.924C207.741 21.916 207.685 21.912 207.629 21.912C207.061 21.912 206.609 22.08 206.273 22.416C205.937 22.744 205.769 23.236 205.769 23.892V27H204.269ZM4.536 42.084C4.016 42.084 3.54 41.964 3.108 41.724C2.684 41.484 2.344 41.124 2.088 40.644C1.84 40.156 1.716 39.54 1.716 38.796C1.716 38.044 1.836 37.428 2.076 36.948C2.324 36.468 2.66 36.112 3.084 35.88C3.508 35.64 3.992 35.52 4.536 35.52C5.168 35.52 5.724 35.656 6.204 35.928C6.692 36.2 7.076 36.58 7.356 37.068C7.644 37.556 7.788 38.132 7.788 38.796C7.788 39.46 7.644 40.04 7.356 40.536C7.076 41.024 6.692 41.404 6.204 41.676C5.724 41.948 5.168 42.084 4.536 42.084ZM0.984 44.328V35.592H2.412V37.104L2.364 38.808L2.484 40.512V44.328H0.984ZM4.368 40.8C4.728 40.8 5.048 40.72 5.328 40.56C5.616 40.4 5.844 40.168 6.012 39.864C6.18 39.56 6.264 39.204 6.264 38.796C6.264 38.38 6.18 38.024 6.012 37.728C5.844 37.424 5.616 37.192 5.328 37.032C5.048 36.872 4.728 36.792 4.368 36.792C4.008 36.792 3.684 36.872 3.396 37.032C3.108 37.192 2.88 37.424 2.712 37.728C2.544 38.024 2.46 38.38 2.46 38.796C2.46 39.204 2.544 39.56 2.712 39.864C2.88 40.168 3.108 40.4 3.396 40.56C3.684 40.72 4.008 40.8 4.368 40.8ZM9.21056 42V33.096H10.7106V42H9.21056ZM16.6273 42V40.704L16.5433 40.428V38.16C16.5433 37.72 16.4113 37.38 16.1473 37.14C15.8833 36.892 15.4833 36.768 14.9473 36.768C14.5873 36.768 14.2313 36.824 13.8793 36.936C13.5353 37.048 13.2433 37.204 13.0033 37.404L12.4153 36.312C12.7593 36.048 13.1673 35.852 13.6393 35.724C14.1193 35.588 14.6153 35.52 15.1273 35.52C16.0553 35.52 16.7713 35.744 17.2753 36.192C17.7873 36.632 18.0433 37.316 18.0433 38.244V42H16.6273ZM14.6113 42.084C14.1313 42.084 13.7113 42.004 13.3513 41.844C12.9913 41.676 12.7113 41.448 12.5113 41.16C12.3193 40.864 12.2233 40.532 12.2233 40.164C12.2233 39.804 12.3073 39.48 12.4753 39.192C12.6513 38.904 12.9353 38.676 13.3273 38.508C13.7193 38.34 14.2393 38.256 14.8873 38.256H16.7473V39.252H14.9953C14.4833 39.252 14.1393 39.336 13.9633 39.504C13.7873 39.664 13.6993 39.864 13.6993 40.104C13.6993 40.376 13.8073 40.592 14.0233 40.752C14.2393 40.912 14.5393 40.992 14.9233 40.992C15.2913 40.992 15.6193 40.908 15.9073 40.74C16.2033 40.572 16.4153 40.324 16.5433 39.996L16.7953 40.896C16.6513 41.272 16.3913 41.564 16.0153 41.772C15.6473 41.98 15.1793 42.084 14.6113 42.084ZM22.3804 42.084C21.6764 42.084 21.1324 41.904 20.7484 41.544C20.3644 41.176 20.1724 40.636 20.1724 39.924V34.176H21.6724V39.888C21.6724 40.192 21.7484 40.428 21.9004 40.596C22.0604 40.764 22.2804 40.848 22.5604 40.848C22.8964 40.848 23.1764 40.76 23.4004 40.584L23.8204 41.652C23.6444 41.796 23.4284 41.904 23.1724 41.976C22.9164 42.048 22.6524 42.084 22.3804 42.084ZM19.1164 36.84V35.64H23.3884V36.84H19.1164ZM27.8554 42.084C27.1434 42.084 26.5194 41.944 25.9834 41.664C25.4554 41.376 25.0434 40.984 24.7474 40.488C24.4594 39.992 24.3154 39.428 24.3154 38.796C24.3154 38.156 24.4554 37.592 24.7354 37.104C25.0234 36.608 25.4154 36.22 25.9114 35.94C26.4154 35.66 26.9874 35.52 27.6274 35.52C28.2514 35.52 28.8074 35.656 29.2954 35.928C29.7834 36.2 30.1674 36.584 30.4474 37.08C30.7274 37.576 30.8674 38.16 30.8674 38.832C30.8674 38.896 30.8634 38.968 30.8554 39.048C30.8554 39.128 30.8514 39.204 30.8434 39.276H25.5034V38.28H30.0514L29.4634 38.592C29.4714 38.224 29.3954 37.9 29.2354 37.62C29.0754 37.34 28.8554 37.12 28.5754 36.96C28.3034 36.8 27.9874 36.72 27.6274 36.72C27.2594 36.72 26.9354 36.8 26.6554 36.96C26.3834 37.12 26.1674 37.344 26.0074 37.632C25.8554 37.912 25.7794 38.244 25.7794 38.628V38.868C25.7794 39.252 25.8674 39.592 26.0434 39.888C26.2194 40.184 26.4674 40.412 26.7874 40.572C27.1074 40.732 27.4754 40.812 27.8914 40.812C28.2514 40.812 28.5754 40.756 28.8634 40.644C29.1514 40.532 29.4074 40.356 29.6314 40.116L30.4354 41.04C30.1474 41.376 29.7834 41.636 29.3434 41.82C28.9114 41.996 28.4154 42.084 27.8554 42.084ZM31.9122 43.812L32.6082 41.16L32.8122 42.048C32.5322 42.048 32.2962 41.964 32.1042 41.796C31.9202 41.62 31.8282 41.384 31.8282 41.088C31.8282 40.784 31.9202 40.544 32.1042 40.368C32.2962 40.184 32.5282 40.092 32.8002 40.092C33.0802 40.092 33.3122 40.184 33.4962 40.368C33.6802 40.552 33.7722 40.792 33.7722 41.088C33.7722 41.168 33.7642 41.256 33.7482 41.352C33.7322 41.44 33.7042 41.544 33.6642 41.664C33.6322 41.784 33.5762 41.936 33.4962 42.12L32.8842 43.812H31.9122ZM40.5343 42.084C39.9983 42.084 39.4823 42.016 38.9863 41.88C38.4983 41.736 38.1103 41.564 37.8223 41.364L38.3983 40.224C38.6863 40.408 39.0303 40.56 39.4303 40.68C39.8303 40.8 40.2303 40.86 40.6303 40.86C41.1023 40.86 41.4423 40.796 41.6503 40.668C41.8663 40.54 41.9743 40.368 41.9743 40.152C41.9743 39.976 41.9023 39.844 41.7583 39.756C41.6143 39.66 41.4263 39.588 41.1943 39.54C40.9623 39.492 40.7023 39.448 40.4143 39.408C40.1343 39.368 39.8503 39.316 39.5623 39.252C39.2823 39.18 39.0263 39.08 38.7943 38.952C38.5623 38.816 38.3743 38.636 38.2303 38.412C38.0863 38.188 38.0143 37.892 38.0143 37.524C38.0143 37.116 38.1303 36.764 38.3623 36.468C38.5943 36.164 38.9183 35.932 39.3343 35.772C39.7583 35.604 40.2583 35.52 40.8343 35.52C41.2663 35.52 41.7023 35.568 42.1423 35.664C42.5823 35.76 42.9463 35.896 43.2343 36.072L42.6583 37.212C42.3543 37.028 42.0463 36.904 41.7343 36.84C41.4303 36.768 41.1263 36.732 40.8223 36.732C40.3663 36.732 40.0263 36.8 39.8023 36.936C39.5863 37.072 39.4783 37.244 39.4783 37.452C39.4783 37.644 39.5503 37.788 39.6943 37.884C39.8383 37.98 40.0263 38.056 40.2583 38.112C40.4903 38.168 40.7463 38.216 41.0263 38.256C41.3143 38.288 41.5983 38.34 41.8783 38.412C42.1583 38.484 42.4143 38.584 42.6463 38.712C42.8863 38.832 43.0783 39.004 43.2223 39.228C43.3663 39.452 43.4383 39.744 43.4383 40.104C43.4383 40.504 43.3183 40.852 43.0783 41.148C42.8463 41.444 42.5143 41.676 42.0823 41.844C41.6503 42.004 41.1343 42.084 40.5343 42.084ZM47.1421 42.084C46.4381 42.084 45.8941 41.904 45.5101 41.544C45.1261 41.176 44.9341 40.636 44.9341 39.924V34.176H46.4341V39.888C46.4341 40.192 46.5101 40.428 46.6621 40.596C46.8221 40.764 47.0421 40.848 47.3221 40.848C47.6581 40.848 47.9381 40.76 48.1621 40.584L48.5821 41.652C48.4061 41.796 48.1901 41.904 47.9341 41.976C47.6781 42.048 47.4141 42.084 47.1421 42.084ZM43.8781 36.84V35.64H48.1501V36.84H43.8781ZM52.4851 42.084C51.8291 42.084 51.2451 41.944 50.7331 41.664C50.2211 41.376 49.8171 40.984 49.5211 40.488C49.2251 39.992 49.0771 39.428 49.0771 38.796C49.0771 38.156 49.2251 37.592 49.5211 37.104C49.8171 36.608 50.2211 36.22 50.7331 35.94C51.2451 35.66 51.8291 35.52 52.4851 35.52C53.1491 35.52 53.7371 35.66 54.2491 35.94C54.7691 36.22 55.1731 36.604 55.4611 37.092C55.7571 37.58 55.9051 38.148 55.9051 38.796C55.9051 39.428 55.7571 39.992 55.4611 40.488C55.1731 40.984 54.7691 41.376 54.2491 41.664C53.7371 41.944 53.1491 42.084 52.4851 42.084ZM52.4851 40.8C52.8531 40.8 53.1811 40.72 53.4691 40.56C53.7571 40.4 53.9811 40.168 54.1411 39.864C54.3091 39.56 54.3931 39.204 54.3931 38.796C54.3931 38.38 54.3091 38.024 54.1411 37.728C53.9811 37.424 53.7571 37.192 53.4691 37.032C53.1811 36.872 52.8571 36.792 52.4971 36.792C52.1291 36.792 51.8011 36.872 51.5131 37.032C51.2331 37.192 51.0091 37.424 50.8411 37.728C50.6731 38.024 50.5891 38.38 50.5891 38.796C50.5891 39.204 50.6731 39.56 50.8411 39.864C51.0091 40.168 51.2331 40.4 51.5131 40.56C51.8011 40.72 52.1251 40.8 52.4851 40.8ZM60.8915 42.084C60.3715 42.084 59.8955 41.964 59.4635 41.724C59.0395 41.484 58.6995 41.124 58.4435 40.644C58.1955 40.156 58.0715 39.54 58.0715 38.796C58.0715 38.044 58.1915 37.428 58.4315 36.948C58.6795 36.468 59.0155 36.112 59.4395 35.88C59.8635 35.64 60.3475 35.52 60.8915 35.52C61.5235 35.52 62.0795 35.656 62.5595 35.928C63.0475 36.2 63.4315 36.58 63.7115 37.068C63.9995 37.556 64.1435 38.132 64.1435 38.796C64.1435 39.46 63.9995 40.04 63.7115 40.536C63.4315 41.024 63.0475 41.404 62.5595 41.676C62.0795 41.948 61.5235 42.084 60.8915 42.084ZM57.3395 44.328V35.592H58.7675V37.104L58.7195 38.808L58.8395 40.512V44.328H57.3395ZM60.7235 40.8C61.0835 40.8 61.4035 40.72 61.6835 40.56C61.9715 40.4 62.1995 40.168 62.3675 39.864C62.5355 39.56 62.6195 39.204 62.6195 38.796C62.6195 38.38 62.5355 38.024 62.3675 37.728C62.1995 37.424 61.9715 37.192 61.6835 37.032C61.4035 36.872 61.0835 36.792 60.7235 36.792C60.3635 36.792 60.0395 36.872 59.7515 37.032C59.4635 37.192 59.2355 37.424 59.0675 37.728C58.8995 38.024 58.8155 38.38 58.8155 38.796C58.8155 39.204 58.8995 39.56 59.0675 39.864C59.2355 40.168 59.4635 40.4 59.7515 40.56C60.0395 40.72 60.3635 40.8 60.7235 40.8ZM72.8304 42V40.704L72.7464 40.428V38.16C72.7464 37.72 72.6144 37.38 72.3504 37.14C72.0864 36.892 71.6864 36.768 71.1504 36.768C70.7904 36.768 70.4344 36.824 70.0824 36.936C69.7384 37.048 69.4464 37.204 69.2064 37.404L68.6184 36.312C68.9624 36.048 69.3704 35.852 69.8424 35.724C70.3224 35.588 70.8184 35.52 71.3304 35.52C72.2584 35.52 72.9744 35.744 73.4784 36.192C73.9904 36.632 74.2464 37.316 74.2464 38.244V42H72.8304ZM70.8144 42.084C70.3344 42.084 69.9144 42.004 69.5544 41.844C69.1944 41.676 68.9144 41.448 68.7144 41.16C68.5224 40.864 68.4264 40.532 68.4264 40.164C68.4264 39.804 68.5104 39.48 68.6784 39.192C68.8544 38.904 69.1384 38.676 69.5304 38.508C69.9224 38.34 70.4424 38.256 71.0904 38.256H72.9504V39.252H71.1984C70.6864 39.252 70.3424 39.336 70.1664 39.504C69.9904 39.664 69.9024 39.864 69.9024 40.104C69.9024 40.376 70.0104 40.592 70.2264 40.752C70.4424 40.912 70.7424 40.992 71.1264 40.992C71.4944 40.992 71.8224 40.908 72.1104 40.74C72.4064 40.572 72.6184 40.324 72.7464 39.996L72.9984 40.896C72.8544 41.272 72.5944 41.564 72.2184 41.772C71.8504 41.98 71.3824 42.084 70.8144 42.084ZM79.8075 35.52C80.3195 35.52 80.7755 35.62 81.1755 35.82C81.5835 36.02 81.9035 36.328 82.1355 36.744C82.3675 37.152 82.4835 37.68 82.4835 38.328V42H80.9835V38.52C80.9835 37.952 80.8475 37.528 80.5755 37.248C80.3115 36.968 79.9395 36.828 79.4595 36.828C79.1075 36.828 78.7955 36.9 78.5235 37.044C78.2515 37.188 78.0395 37.404 77.8875 37.692C77.7435 37.972 77.6715 38.328 77.6715 38.76V42H76.1715V35.592H77.5995V37.32L77.3475 36.792C77.5715 36.384 77.8955 36.072 78.3195 35.856C78.7515 35.632 79.2475 35.52 79.8075 35.52ZM87.1101 42.084C86.4941 42.084 85.9381 41.948 85.4421 41.676C84.9541 41.396 84.5701 41.012 84.2901 40.524C84.0101 40.036 83.8701 39.46 83.8701 38.796C83.8701 38.132 84.0101 37.556 84.2901 37.068C84.5701 36.58 84.9541 36.2 85.4421 35.928C85.9381 35.656 86.4941 35.52 87.1101 35.52C87.6461 35.52 88.1261 35.64 88.5501 35.88C88.9741 36.112 89.3101 36.468 89.5581 36.948C89.8061 37.428 89.9301 38.044 89.9301 38.796C89.9301 39.54 89.8101 40.156 89.5701 40.644C89.3301 41.124 88.9981 41.484 88.5741 41.724C88.1501 41.964 87.6621 42.084 87.1101 42.084ZM87.2901 40.8C87.6501 40.8 87.9701 40.72 88.2501 40.56C88.5381 40.4 88.7661 40.168 88.9341 39.864C89.1101 39.56 89.1981 39.204 89.1981 38.796C89.1981 38.38 89.1101 38.024 88.9341 37.728C88.7661 37.424 88.5381 37.192 88.2501 37.032C87.9701 36.872 87.6501 36.792 87.2901 36.792C86.9301 36.792 86.6061 36.872 86.3181 37.032C86.0381 37.192 85.8101 37.424 85.6341 37.728C85.4661 38.024 85.3821 38.38 85.3821 38.796C85.3821 39.204 85.4661 39.56 85.6341 39.864C85.8101 40.168 86.0381 40.4 86.3181 40.56C86.6061 40.72 86.9301 40.8 87.2901 40.8ZM89.2341 42V40.488L89.2941 38.784L89.1741 37.08V33.096H90.6621V42H89.2341ZM95.9528 42V35.592H97.3808V37.356L97.2128 36.84C97.4048 36.408 97.7048 36.08 98.1128 35.856C98.5288 35.632 99.0448 35.52 99.6608 35.52V36.948C99.5968 36.932 99.5368 36.924 99.4808 36.924C99.4248 36.916 99.3688 36.912 99.3128 36.912C98.7448 36.912 98.2928 37.08 97.9568 37.416C97.6208 37.744 97.4528 38.236 97.4528 38.892V42H95.9528ZM103.887 42.084C103.175 42.084 102.551 41.944 102.015 41.664C101.487 41.376 101.075 40.984 100.779 40.488C100.491 39.992 100.347 39.428 100.347 38.796C100.347 38.156 100.487 37.592 100.767 37.104C101.055 36.608 101.447 36.22 101.943 35.94C102.447 35.66 103.019 35.52 103.659 35.52C104.283 35.52 104.839 35.656 105.327 35.928C105.815 36.2 106.199 36.584 106.479 37.08C106.759 37.576 106.899 38.16 106.899 38.832C106.899 38.896 106.895 38.968 106.887 39.048C106.887 39.128 106.883 39.204 106.875 39.276H101.535V38.28H106.083L105.495 38.592C105.503 38.224 105.427 37.9 105.267 37.62C105.107 37.34 104.887 37.12 104.607 36.96C104.335 36.8 104.019 36.72 103.659 36.72C103.291 36.72 102.967 36.8 102.687 36.96C102.415 37.12 102.199 37.344 102.039 37.632C101.887 37.912 101.811 38.244 101.811 38.628V38.868C101.811 39.252 101.899 39.592 102.075 39.888C102.251 40.184 102.499 40.412 102.819 40.572C103.139 40.732 103.507 40.812 103.923 40.812C104.283 40.812 104.607 40.756 104.895 40.644C105.183 40.532 105.439 40.356 105.663 40.116L106.467 41.04C106.179 41.376 105.815 41.636 105.375 41.82C104.943 41.996 104.447 42.084 103.887 42.084ZM110.751 42.084C110.047 42.084 109.503 41.904 109.119 41.544C108.735 41.176 108.543 40.636 108.543 39.924V34.176H110.043V39.888C110.043 40.192 110.119 40.428 110.271 40.596C110.431 40.764 110.651 40.848 110.931 40.848C111.267 40.848 111.547 40.76 111.771 40.584L112.191 41.652C112.015 41.796 111.799 41.904 111.543 41.976C111.287 42.048 111.023 42.084 110.751 42.084ZM107.487 36.84V35.64H111.759V36.84H107.487ZM117.061 35.52C117.573 35.52 118.029 35.62 118.429 35.82C118.837 36.02 119.157 36.328 119.389 36.744C119.621 37.152 119.737 37.68 119.737 38.328V42H118.237V38.52C118.237 37.952 118.101 37.528 117.829 37.248C117.565 36.968 117.193 36.828 116.713 36.828C116.361 36.828 116.049 36.9 115.777 37.044C115.505 37.188 115.293 37.404 115.141 37.692C114.997 37.972 114.925 38.328 114.925 38.76V42H113.425V33.096H114.925V37.32L114.601 36.792C114.825 36.384 115.149 36.072 115.573 35.856C116.005 35.632 116.501 35.52 117.061 35.52ZM121.64 42V35.592H123.14V42H121.64ZM122.396 34.536C122.116 34.536 121.884 34.448 121.7 34.272C121.524 34.096 121.436 33.884 121.436 33.636C121.436 33.38 121.524 33.168 121.7 33C121.884 32.824 122.116 32.736 122.396 32.736C122.676 32.736 122.904 32.82 123.08 32.988C123.264 33.148 123.356 33.352 123.356 33.6C123.356 33.864 123.268 34.088 123.092 34.272C122.916 34.448 122.684 34.536 122.396 34.536ZM128.745 35.52C129.257 35.52 129.713 35.62 130.113 35.82C130.521 36.02 130.841 36.328 131.073 36.744C131.305 37.152 131.421 37.68 131.421 38.328V42H129.921V38.52C129.921 37.952 129.785 37.528 129.513 37.248C129.249 36.968 128.877 36.828 128.397 36.828C128.045 36.828 127.733 36.9 127.461 37.044C127.189 37.188 126.977 37.404 126.825 37.692C126.681 37.972 126.609 38.328 126.609 38.76V42H125.109V35.592H126.537V37.32L126.285 36.792C126.509 36.384 126.833 36.072 127.257 35.856C127.689 35.632 128.185 35.52 128.745 35.52ZM134.548 40.572L134.584 38.688L137.932 35.592H139.732L136.888 38.448L136.096 39.108L134.548 40.572ZM133.324 42V33.096H134.824V42H133.324ZM138.16 42L135.82 39.108L136.768 37.908L139.984 42H138.16ZM141.55 42.084C141.278 42.084 141.046 41.992 140.854 41.808C140.662 41.616 140.566 41.376 140.566 41.088C140.566 40.784 140.662 40.544 140.854 40.368C141.046 40.184 141.278 40.092 141.55 40.092C141.822 40.092 142.054 40.184 142.246 40.368C142.438 40.544 142.534 40.784 142.534 41.088C142.534 41.376 142.438 41.616 142.246 41.808C142.054 41.992 141.822 42.084 141.55 42.084Z" fill="white"/>
<circle cx="179.5" cy="75.5" r="17.5" fill="#F5E3E3"/>
<path d="M186 76L177 81.1962V70.8038L186 76Z" fill="#DB4343"/>
<path d="M321 76L326 78.3868V72.6132L321 75V76ZM197 76H198.008V75H197V76ZM200.023 76H202.039V75H200.023V76ZM204.055 76H206.07V75H204.055V76ZM208.086 76H210.102V75H208.086V76ZM212.117 76H214.133V75H212.117V76ZM216.148 76H218.164V75H216.148V76ZM220.18 76H222.195V75H220.18V76ZM224.211 76H226.227V75H224.211V76ZM228.242 76H230.258V75H228.242V76ZM232.273 76H234.289V75H232.273V76ZM236.305 76H238.32V75H236.305V76ZM240.336 76H242.352V75H240.336V76ZM244.367 76H246.383V75H244.367V76ZM248.398 76H250.414V75H248.398V76ZM252.43 76H254.445V75H252.43V76ZM256.461 76H258.477V75H256.461V76ZM260.492 76H262.508V75H260.492V76ZM264.523 76H266.539V75H264.523V76ZM268.555 76H270.57V75H268.555V76ZM272.586 76H274.602V75H272.586V76ZM276.617 76H278.633V75H276.617V76ZM280.648 76H282.664V75H280.648V76ZM284.68 76H286.695V75H284.68V76ZM288.711 76H290.727V75H288.711V76ZM292.742 76H294.758V75H292.742V76ZM296.773 76H298.789V75H296.773V76ZM300.805 76H302.82V75H300.805V76ZM304.836 76H306.852V75H304.836V76ZM308.867 76H310.883V75H308.867V76ZM312.898 76H314.914V75H312.898V76ZM316.93 76H318.945V75H316.93V76ZM320.961 76H322.977V75H320.961V76Z" fill="white"/>
<path d="M305.632 46.152V41.272H307.376V53H305.632V47.688H299.296V53H297.552V41.272H299.296V46.152H305.632ZM313.834 53.208C312.768 53.208 311.925 52.968 311.306 52.488C310.688 51.9973 310.261 51.4213 310.026 50.76C309.792 50.088 309.674 49.4373 309.674 48.808C309.674 48.1787 309.792 47.5333 310.026 46.872C310.261 46.2 310.688 45.624 311.306 45.144C311.925 44.6533 312.768 44.408 313.834 44.408C314.89 44.408 315.728 44.6533 316.346 45.144C316.965 45.624 317.392 46.2 317.626 46.872C317.872 47.5333 317.994 48.1787 317.994 48.808C317.994 49.4373 317.872 50.088 317.626 50.76C317.392 51.4213 316.965 51.9973 316.346 52.488C315.728 52.968 314.89 53.208 313.834 53.208ZM313.834 51.736C314.698 51.736 315.338 51.4533 315.754 50.888C316.17 50.3227 316.378 49.6293 316.378 48.808C316.378 47.9867 316.17 47.2933 315.754 46.728C315.338 46.1627 314.698 45.88 313.834 45.88C312.97 45.88 312.33 46.1627 311.914 46.728C311.498 47.2933 311.29 47.9867 311.29 48.808C311.29 49.6293 311.498 50.3227 311.914 50.888C312.33 51.4533 312.97 51.736 313.834 51.736ZM327.358 50.088L328.942 44.616H330.702L328.11 53H326.702L324.958 47.384L323.214 53H321.806L319.198 44.616H320.958L322.558 50.104L324.254 44.616H325.662L327.358 50.088Z" fill="white"/>
<path d="M333.056 64.272C334.144 64.272 335.035 64.5493 335.728 65.104C336.421 65.648 336.768 66.5067 336.768 67.68C336.768 68.8427 336.421 69.696 335.728 70.24C335.045 70.784 334.155 71.0667 333.056 71.088C332.811 71.0987 331.515 71.104 329.168 71.104V76H327.424V64.272H329.168H333.056ZM332.064 69.552C332.661 69.552 333.157 69.52 333.552 69.456C333.957 69.392 334.299 69.2213 334.576 68.944C334.864 68.6667 335.008 68.2453 335.008 67.68C335.008 67.1147 334.864 66.6933 334.576 66.416C334.299 66.1387 333.957 65.968 333.552 65.904C333.157 65.84 332.661 65.808 332.064 65.808H329.168V69.552H332.064ZM340.38 69.056C341.063 68.0107 342.028 67.488 343.276 67.488V69.28C343.105 69.2587 342.977 69.248 342.892 69.248C342.529 69.248 342.161 69.328 341.788 69.488C341.425 69.648 341.111 69.8773 340.844 70.176C340.588 70.4747 340.433 70.8107 340.38 71.184V76H338.668V67.616H340.38V69.056ZM348.678 76.208C347.611 76.208 346.769 75.968 346.15 75.488C345.531 74.9973 345.105 74.4213 344.87 73.76C344.635 73.088 344.518 72.4373 344.518 71.808C344.518 71.1787 344.635 70.5333 344.87 69.872C345.105 69.2 345.531 68.624 346.15 68.144C346.769 67.6533 347.611 67.408 348.678 67.408C349.734 67.408 350.571 67.6533 351.19 68.144C351.809 68.624 352.235 69.2 352.47 69.872C352.715 70.5333 352.838 71.1787 352.838 71.808C352.838 72.4373 352.715 73.088 352.47 73.76C352.235 74.4213 351.809 74.9973 351.19 75.488C350.571 75.968 349.734 76.208 348.678 76.208ZM348.678 74.736C349.542 74.736 350.182 74.4533 350.598 73.888C351.014 73.3227 351.222 72.6293 351.222 71.808C351.222 70.9867 351.014 70.2933 350.598 69.728C350.182 69.1627 349.542 68.88 348.678 68.88C347.814 68.88 347.174 69.1627 346.758 69.728C346.342 70.2933 346.134 70.9867 346.134 71.808C346.134 72.6293 346.342 73.3227 346.758 73.888C347.174 74.4533 347.814 74.736 348.678 74.736ZM358.217 65.52C357.908 65.52 357.668 65.6107 357.497 65.792C357.327 65.9627 357.241 66.2667 357.241 66.704V67.616H358.953V68.96H357.241V76H355.529V68.96H354.105V67.616H355.529V66.544C355.529 65.8827 355.684 65.2907 355.993 64.768C356.313 64.2347 356.927 63.968 357.833 63.968C358.164 63.968 358.548 64.016 358.985 64.112V65.616C358.644 65.552 358.388 65.52 358.217 65.52ZM361.192 65.952C360.904 65.952 360.659 65.8507 360.456 65.648C360.254 65.4453 360.152 65.2 360.152 64.912C360.152 64.624 360.254 64.3787 360.456 64.176C360.659 63.9733 360.904 63.872 361.192 63.872C361.48 63.872 361.726 63.9733 361.928 64.176C362.131 64.3787 362.232 64.624 362.232 64.912C362.232 65.2 362.131 65.4453 361.928 65.648C361.726 65.8507 361.48 65.952 361.192 65.952ZM362.04 76H360.328V67.616H362.04V76ZM366.51 76H364.798V64.272H366.51V76ZM370.114 65.952C369.826 65.952 369.581 65.8507 369.378 65.648C369.176 65.4453 369.074 65.2 369.074 64.912C369.074 64.624 369.176 64.3787 369.378 64.176C369.581 63.9733 369.826 63.872 370.114 63.872C370.402 63.872 370.648 63.9733 370.85 64.176C371.053 64.3787 371.154 64.624 371.154 64.912C371.154 65.2 371.053 65.4453 370.85 65.648C370.648 65.8507 370.402 65.952 370.114 65.952ZM370.962 76H369.25V67.616H370.962V76ZM381.176 73.36C380.941 74.1707 380.509 74.848 379.88 75.392C379.251 75.936 378.376 76.208 377.256 76.208C376.189 76.208 375.347 75.968 374.728 75.488C374.109 74.9973 373.683 74.4213 373.448 73.76C373.213 73.088 373.096 72.4373 373.096 71.808C373.096 71.1787 373.213 70.5333 373.448 69.872C373.683 69.2 374.109 68.624 374.728 68.144C375.347 67.6533 376.189 67.408 377.256 67.408C378.376 67.408 379.251 67.68 379.88 68.224C380.509 68.768 380.941 69.4453 381.176 70.256L379.704 70.816C379.555 70.24 379.277 69.776 378.872 69.424C378.467 69.0613 377.928 68.88 377.256 68.88C376.392 68.88 375.752 69.1627 375.336 69.728C374.92 70.2933 374.712 70.9867 374.712 71.808C374.712 72.6293 374.92 73.3227 375.336 73.888C375.752 74.4533 376.392 74.736 377.256 74.736C377.928 74.736 378.467 74.56 378.872 74.208C379.277 73.8453 379.555 73.376 379.704 72.8L381.176 73.36Z" fill="white"/>
<path d="M308.592 97.088L310.176 91.616H311.936L309.344 100H307.936L306.192 94.384L304.448 100H303.04L300.432 91.616H302.192L303.792 97.104L305.488 91.616H306.896L308.592 97.088ZM317.303 100.208C316.236 100.208 315.394 99.968 314.775 99.488C314.156 98.9973 313.73 98.4213 313.495 97.76C313.26 97.088 313.143 96.4373 313.143 95.808C313.143 95.1787 313.26 94.5333 313.495 93.872C313.73 93.2 314.156 92.624 314.775 92.144C315.394 91.6533 316.236 91.408 317.303 91.408C318.359 91.408 319.196 91.6533 319.815 92.144C320.434 92.624 320.86 93.2 321.095 93.872C321.34 94.5333 321.463 95.1787 321.463 95.808C321.463 96.4373 321.34 97.088 321.095 97.76C320.86 98.4213 320.434 98.9973 319.815 99.488C319.196 99.968 318.359 100.208 317.303 100.208ZM317.303 98.736C318.167 98.736 318.807 98.4533 319.223 97.888C319.639 97.3227 319.847 96.6293 319.847 95.808C319.847 94.9867 319.639 94.2933 319.223 93.728C318.807 93.1627 318.167 92.88 317.303 92.88C316.439 92.88 315.799 93.1627 315.383 93.728C314.967 94.2933 314.759 94.9867 314.759 95.808C314.759 96.6293 314.967 97.3227 315.383 97.888C315.799 98.4533 316.439 98.736 317.303 98.736ZM325.114 93.056C325.797 92.0107 326.762 91.488 328.01 91.488V93.28C327.84 93.2587 327.712 93.248 327.626 93.248C327.264 93.248 326.896 93.328 326.522 93.488C326.16 93.648 325.845 93.8773 325.578 94.176C325.322 94.4747 325.168 94.8107 325.114 95.184V100H323.402V91.616H325.114V93.056ZM335.188 91.616H337.284L333.828 94.928L337.172 100H335.3L332.708 96L331.524 97.136V100H329.876V88.272H331.524V95.12L335.188 91.616ZM341.71 100.192C340.739 100.192 339.934 100.011 339.294 99.648C338.654 99.2853 338.201 98.7787 337.934 98.128L339.47 97.28C339.545 97.6427 339.785 97.968 340.19 98.256C340.606 98.544 341.107 98.688 341.694 98.688C342.334 98.688 342.83 98.6027 343.182 98.432C343.545 98.2507 343.726 97.9947 343.726 97.664C343.726 97.408 343.614 97.2107 343.39 97.072C343.166 96.9227 342.846 96.7893 342.43 96.672C342.206 96.608 341.87 96.5227 341.422 96.416C340.846 96.2773 340.409 96.16 340.11 96.064C339.491 95.8613 339.017 95.6 338.686 95.28C338.366 94.96 338.206 94.5173 338.206 93.952C338.206 93.4293 338.361 92.976 338.67 92.592C338.99 92.208 339.406 91.92 339.918 91.728C340.43 91.5253 340.985 91.424 341.582 91.424C342.361 91.424 343.07 91.5893 343.71 91.92C344.361 92.24 344.809 92.736 345.054 93.408L343.55 94.144C343.401 93.7173 343.145 93.3973 342.782 93.184C342.419 92.9707 341.987 92.864 341.486 92.864C341.038 92.864 340.654 92.9547 340.334 93.136C340.014 93.3067 339.854 93.5573 339.854 93.888C339.854 94.0693 339.929 94.224 340.078 94.352C340.238 94.48 340.526 94.6027 340.942 94.72L341.822 94.944C342.345 95.0507 342.803 95.168 343.198 95.296C343.913 95.52 344.462 95.7973 344.846 96.128C345.241 96.4587 345.438 96.9227 345.438 97.52C345.438 97.968 345.305 98.3947 345.038 98.8C344.782 99.2053 344.371 99.5413 343.806 99.808C343.251 100.064 342.553 100.192 341.71 100.192Z" fill="white"/>
</svg>
